<svg width="182" height="185" viewBox="0 0 182 185" fill="none" xmlns="http://www.w3.org/2000/svg">
<path fill-rule="evenodd" clip-rule="evenodd" d="M62.8003 77.0874C66.9347 80.3033 72.8473 79.7971 76.375 75.9254C79.9026 72.0536 79.8579 66.1196 76.2722 62.3015C72.6866 58.4834 66.767 58.0665 62.6816 61.3443V61.3443L60.4853 59.6483L57.2163 60.6701L57.5894 57.4011L54.8334 55.2599L51.5686 56.2775L51.9417 53.0085L49.5715 51.1683L47.5787 51.7873L47.8077 49.7945L46.4127 48.7091L43.2836 49.0144L42.8596 53.8225L59.2515 66.5637C58.21 70.4661 59.6084 74.6126 62.8003 77.0874L62.8003 77.0874ZM74.7444 73.6657C73.7704 74.9188 71.9652 75.1455 70.7116 74.1721C69.4581 73.1987 69.2305 71.3936 70.2033 70.1395C71.1761 68.8855 72.9811 68.6571 74.2356 69.6293C75.4875 70.6053 75.7149 72.4096 74.7444 73.6658L74.7444 73.6657Z" fill="#EBEBEB"/>
<path fill-rule="evenodd" clip-rule="evenodd" d="M76.0121 38.7663C77.7884 36.5954 77.5956 33.4234 75.5694 31.4837C73.5432 29.544 70.3658 29.4897 68.2745 31.3589C66.1832 33.2282 65.882 36.3918 67.583 38.6221V38.6221L66.6375 39.7754L67.1421 41.5392L65.3952 41.2975L64.2207 42.7476L64.7253 44.5115L62.9826 44.2655L61.965 45.5121L62.2703 46.5848L61.2061 46.4364L60.6167 47.1615L60.7397 48.8575L63.3091 49.1458L70.339 40.5343C72.4135 41.1385 74.6482 40.4421 76.0121 38.7663H76.0121ZM74.3161 32.3299C74.9736 32.8685 75.0701 33.838 74.5317 34.4956C73.9934 35.1532 73.0239 35.25 72.3661 34.7118C71.7084 34.1735 71.6114 33.204 72.1495 32.5462C72.4077 32.224 72.7849 32.0195 73.1958 31.9788C73.6067 31.9381 74.0166 32.0647 74.3331 32.3299H74.3161Z" fill="#EBEBEB"/>
<path fill-rule="evenodd" clip-rule="evenodd" d="M53.3323 2.34473V33.4578H8.63845L7.03149 2.56097L53.3323 2.34473V2.34473Z" fill="#E0E0E0"/>
<rect x="7.03149" y="33.3938" width="30.8328" height="44.6932" transform="rotate(-90 7.03149 33.3938)" fill="white"/>
<path fill-rule="evenodd" clip-rule="evenodd" d="M51.9247 33.6062H6.81958V2.34888H51.9247V33.6062ZM7.23509 33.1822H51.5007V2.77288H7.24357L7.23509 33.1822Z" fill="#E0E0E0"/>
<rect x="11.8694" y="6.38965" width="35.0097" height="23.1716" fill="white"/>
<path fill-rule="evenodd" clip-rule="evenodd" d="M46.8834 6.38961H46.7095H46.2092L44.2927 6.42777H37.0847L11.8822 6.47865L11.9839 6.37689C11.9839 13.4577 11.9839 21.3017 11.9839 29.5485V29.5485L11.8737 29.4382L46.8876 29.4637L46.7986 29.5485C46.7986 22.4974 46.8325 16.7182 46.8452 12.6902C46.8452 10.6762 46.8452 9.10744 46.8664 8.02624C46.8664 7.492 46.8664 7.08496 46.8664 6.80088C46.8664 6.5168 46.8664 6.37688 46.8664 6.37688C46.8664 6.37688 46.8664 6.51256 46.8664 6.80088C46.8664 7.0892 46.8664 7.48352 46.8664 8.00928C46.8664 9.082 46.8664 10.6508 46.8664 12.6733C46.8664 16.714 46.8961 22.5143 46.9131 29.5866V29.6757H46.8283H11.8143H11.7041V29.5612V29.5612C11.7041 21.3144 11.7041 13.4704 11.7041 6.3896V6.28784H11.8059L37.0763 6.33872L44.2843 6.3684H46.188H46.6756L46.8834 6.38961Z" fill="#E0E0E0"/>
<path fill-rule="evenodd" clip-rule="evenodd" d="M7.02734 2.47192C7.30344 2.60762 7.56247 2.77556 7.79902 2.97224C8.25694 3.30296 8.87598 3.76936 9.55014 4.30784C10.2243 4.84632 10.8221 5.35512 11.2461 5.73672C11.4857 5.92708 11.7008 6.1464 11.8864 6.38968C11.844 6.43632 10.7713 5.54168 9.42718 4.48168C8.58618 3.86237 7.78468 3.19115 7.02734 2.47192V2.47192Z" fill="#E0E0E0"/>
<path fill-rule="evenodd" clip-rule="evenodd" d="M51.7212 2.56104C50.9886 3.28185 50.2066 3.95057 49.3807 4.5623C48.5947 5.22868 47.763 5.83932 46.8918 6.38976C47.6271 5.66861 48.412 4.99987 49.2408 4.38846C50.0236 3.72179 50.8525 3.11114 51.7212 2.56104L51.7212 2.56104Z" fill="#E0E0E0"/>
<path fill-rule="evenodd" clip-rule="evenodd" d="M51.6873 33.3984L46.7053 29.3577Z" fill="white"/>
<path fill-rule="evenodd" clip-rule="evenodd" d="M46.7053 29.3577C47.5958 29.9443 48.4457 30.5902 49.2493 31.2911C50.1025 31.9433 50.9113 32.6515 51.6703 33.4111C50.7791 32.8256 49.9291 32.1796 49.1264 31.4777C48.2697 30.8298 47.4606 30.1213 46.7053 29.3577L46.7053 29.3577Z" fill="#E0E0E0"/>
<path fill-rule="evenodd" clip-rule="evenodd" d="M7.02738 33.3942C7.75544 32.6799 8.53331 32.0182 9.35513 31.4141C10.1331 30.7539 10.9562 30.149 11.8186 29.6036C11.0945 30.322 10.3179 30.9853 9.49505 31.588C8.71638 32.2478 7.89173 32.8514 7.02734 33.3942L7.02738 33.3942Z" fill="#E0E0E0"/>
<path fill-rule="evenodd" clip-rule="evenodd" d="M18.9797 21.3694L18.9797 13.6103L41.0104 13.6103V21.3694L18.9797 21.3694Z" fill="#E0E0E0"/>
<path fill-rule="evenodd" clip-rule="evenodd" d="M164.285 179.182C164.285 179.297 127.871 179.394 82.9614 179.394C38.0513 179.394 1.62549 179.297 1.62549 179.182C1.62549 179.068 38.0344 178.97 82.9614 178.97C127.888 178.97 164.285 179.068 164.285 179.182V179.182Z" fill="#263238"/>
<path fill-rule="evenodd" clip-rule="evenodd" d="M130.276 163.732L140.77 178.992L144.522 179.081L137.645 163.388L130.276 163.732V163.732Z" fill="#263238"/>
<path fill-rule="evenodd" clip-rule="evenodd" d="M19.5397 164.508L14.0107 178.924H16.7752L26.4297 164.571L19.5397 164.508V164.508Z" fill="#263238"/>
<path fill-rule="evenodd" clip-rule="evenodd" d="M17.1568 112.131L17.5808 130.787C17.6369 133.424 19.7603 135.549 22.3975 135.608L126.782 137.931C128.109 137.961 129.392 137.455 130.34 136.527C131.289 135.599 131.824 134.327 131.823 133V110.528C131.821 103.905 126.937 98.2964 120.376 97.3844C101.266 94.7555 61.8634 90.7148 29.9998 96.4557C22.4437 97.8068 16.9952 104.457 17.1568 112.131V112.131Z" fill="#1A4F8B"/>
<path fill-rule="evenodd" clip-rule="evenodd" d="M16.6988 118.648C16.6988 118.648 8.1001 114.667 6.3405 118.648C4.5809 122.629 6.55674 127.514 8.49018 130.236C10.4236 132.958 10.4151 166.59 10.4151 166.59L140.829 165.195L142.372 132.856C142.372 132.856 148.626 125.152 148.236 121.832C147.846 118.512 142.567 113.679 136.508 118.635C130.45 123.592 128.876 133.95 128.876 133.95L24.899 134.734C24.899 134.734 25.2551 120.187 16.6988 118.648V118.648Z" fill="#1A4F8B"/>
<path fill-rule="evenodd" clip-rule="evenodd" d="M127.558 140.514C127.558 140.628 104.454 140.726 75.9613 140.726C47.4685 140.726 24.3647 140.652 24.3647 140.514C24.3647 140.375 47.46 140.302 75.9613 140.302C104.463 140.302 127.558 140.416 127.558 140.514V140.514Z" fill="#263238"/>
<path fill-rule="evenodd" clip-rule="evenodd" d="M24.3648 154.658C24.3594 154.625 24.3594 154.59 24.3648 154.557C24.3648 154.476 24.3648 154.374 24.3648 154.256C24.3648 153.99 24.3563 153.604 24.3394 153.098C24.3394 152.076 24.3394 150.63 24.3394 148.858C24.3394 145.271 24.3648 140.314 24.1995 134.866C24.1672 132.301 23.9689 129.74 23.6059 127.2C23.5295 126.92 23.4532 126.64 23.3811 126.352C23.3091 126.064 23.1691 125.822 23.0589 125.563C22.8342 125.05 22.6052 124.559 22.3551 124.096C21.9034 123.236 21.3725 122.42 20.7693 121.658C20.2656 121.035 19.6971 120.466 19.0733 119.962C18.5995 119.585 18.0896 119.256 17.5511 118.979C17.082 118.763 16.6023 118.57 16.1138 118.402L16.2113 118.402L16.5039 118.483C16.8781 118.59 17.2414 118.732 17.5893 118.907C18.1431 119.169 18.6664 119.492 19.1496 119.869C19.7866 120.369 20.3667 120.938 20.8795 121.565C21.4994 122.328 22.0446 123.149 22.5077 124.016C22.7663 124.482 22.9995 124.974 23.2285 125.491C23.343 125.75 23.449 126.017 23.555 126.284L23.7967 127.132C24.1749 129.684 24.3803 132.257 24.4115 134.836C24.5768 140.306 24.5217 145.263 24.4878 148.85C24.4623 150.626 24.4411 152.072 24.4284 153.09C24.4284 153.577 24.4284 153.963 24.4284 154.247V154.544C24.3648 154.62 24.3648 154.658 24.3648 154.658V154.658Z" fill="#263238"/>
<path fill-rule="evenodd" clip-rule="evenodd" d="M15.6853 126.153C15.7866 126.084 15.9062 126.047 16.0288 126.047C16.3696 126.021 16.7088 126.115 16.987 126.314C17.1826 126.451 17.3426 126.632 17.4534 126.844C17.5801 127.092 17.6233 127.375 17.5764 127.649C17.4818 128.297 16.998 128.82 16.3595 128.964C15.7169 129.056 15.0817 128.753 14.7483 128.196C14.6055 127.959 14.5334 127.685 14.5405 127.408C14.5716 126.814 14.9244 126.284 15.4606 126.026C15.5687 125.967 15.6897 125.937 15.8125 125.937C15.8125 125.958 15.6896 125.987 15.4988 126.102C15.2321 126.267 15.0187 126.505 14.884 126.789C14.6791 127.193 14.6984 127.674 14.9349 128.061C15.2315 128.536 15.779 128.793 16.3341 128.718C16.8773 128.591 17.2926 128.152 17.3898 127.603C17.4661 127.151 17.2785 126.696 16.9064 126.428C16.6648 126.236 16.3672 126.127 16.0584 126.119C15.8125 126.132 15.6896 126.174 15.6853 126.153V126.153Z" fill="#263238"/>
<path fill-rule="evenodd" clip-rule="evenodd" d="M16.2747 134.522C16.0274 134.339 15.8258 134.101 15.6853 133.827C14.897 132.529 14.8775 130.904 15.6344 129.587C15.7696 129.31 15.9652 129.066 16.2068 128.875C16.2365 128.9 16.016 129.167 15.7828 129.659C15.4647 130.296 15.3019 130.999 15.3079 131.711C15.3196 132.424 15.4982 133.124 15.8295 133.755C16.0754 134.238 16.3086 134.501 16.2747 134.522V134.522Z" fill="#263238"/>
<path fill-rule="evenodd" clip-rule="evenodd" d="M14.9096 121.934C14.8865 122.149 14.844 122.362 14.7824 122.57C14.5964 123.585 14.8189 124.632 15.4014 125.483C15.5388 125.649 15.6649 125.825 15.7788 126.009C15.7788 126.009 15.5414 125.89 15.2742 125.585C14.5763 124.732 14.3303 123.597 14.6128 122.532C14.6603 122.311 14.7623 122.105 14.9096 121.934V121.934Z" fill="#263238"/>
<path fill-rule="evenodd" clip-rule="evenodd" d="M12.3696 126.623C12.4205 126.581 12.8148 126.98 13.4169 127.289C14.019 127.599 14.5659 127.713 14.5575 127.764C14.1233 127.82 13.6835 127.721 13.3152 127.484C12.9098 127.315 12.5756 127.011 12.3696 126.623V126.623Z" fill="#263238"/>
<path fill-rule="evenodd" clip-rule="evenodd" d="M141.329 154.76C141.329 154.874 111.917 154.972 75.6348 154.972C39.3531 154.972 9.94873 154.874 9.94873 154.76C9.94873 154.646 39.3574 154.548 75.6687 154.548C111.98 154.548 141.329 154.638 141.329 154.76V154.76Z" fill="#263238"/>
<path fill-rule="evenodd" clip-rule="evenodd" d="M127.206 134.073C127.328 134.073 127.418 138.678 127.418 144.355C127.418 150.032 127.328 154.645 127.206 154.645C127.084 154.645 126.994 150.041 126.994 144.355C126.994 138.669 127.092 134.073 127.206 134.073V134.073Z" fill="#263238"/>
<path fill-rule="evenodd" clip-rule="evenodd" d="M83.5552 98.4953H83.3517L82.7581 98.5164L80.4812 98.58L72.0945 98.7751L44.4327 99.3305C41.7318 99.3941 39.0903 99.3856 36.5548 99.5552C34.1132 99.6602 31.6977 100.101 29.3765 100.865C27.2825 101.568 25.4087 102.806 23.9408 104.457C23.275 105.202 22.7052 106.029 22.2448 106.916C21.8249 107.732 21.4773 108.583 21.206 109.46C20.7702 110.983 20.4862 112.545 20.358 114.124C20.2266 115.523 20.2138 116.731 20.2054 117.724C20.1969 118.716 20.2054 119.479 20.235 120.001C20.235 120.255 20.235 120.45 20.235 120.594C20.235 120.738 20.235 120.798 20.235 120.798C20.235 120.798 20.235 120.73 20.235 120.594C20.235 120.458 20.235 120.255 20.2011 120.001C20.1757 119.483 20.1418 118.729 20.1333 117.724C20.1248 116.719 20.1333 115.519 20.2478 114.111C20.3726 112.517 20.6567 110.938 21.0958 109.401C21.3642 108.508 21.7104 107.642 22.1303 106.81C22.5867 105.905 23.1566 105.061 23.8263 104.3C25.3141 102.624 27.2143 101.367 29.3383 100.653C31.6674 99.8759 34.0933 99.4264 36.5463 99.3178C39.0903 99.1482 41.7361 99.1524 44.437 99.0889L72.103 98.597L80.4854 98.474L82.7666 98.4486H83.3602L83.5552 98.4953Z" fill="#263238"/>
<path fill-rule="evenodd" clip-rule="evenodd" d="M50.1693 113.021C50.1693 113.021 50.0294 113.089 49.8132 113.255C49.5075 113.489 49.2787 113.809 49.156 114.175C48.9549 114.704 49.0433 115.3 49.3892 115.748C49.7819 116.342 50.504 116.627 51.1969 116.463C51.8897 116.298 52.4058 115.717 52.4886 115.01C52.5938 114.453 52.4047 113.881 51.9883 113.496C51.7134 113.228 51.3653 113.046 50.9877 112.975C50.7205 112.928 50.5637 112.945 50.5637 112.928C50.6992 112.878 50.8454 112.865 50.9877 112.89C51.6914 112.971 52.298 113.422 52.5777 114.073C52.7026 114.382 52.7364 114.72 52.6752 115.048C52.5631 115.825 51.9881 116.454 51.2249 116.635C50.4616 116.817 49.6649 116.514 49.2153 115.871C49.0141 115.606 48.8921 115.29 48.8634 114.959C48.8443 114.67 48.8892 114.381 48.9949 114.111C49.1396 113.726 49.4041 113.397 49.7496 113.174C49.8733 113.087 50.0183 113.034 50.1693 113.021L50.1693 113.021Z" fill="#263238"/>
<path fill-rule="evenodd" clip-rule="evenodd" d="M48.3843 124.007C48.2228 123.599 48.1145 123.171 48.062 122.735C47.8552 121.7 47.8783 120.632 48.1299 119.606C48.4017 118.567 49.0539 117.668 49.9573 117.088C50.2304 116.919 50.53 116.797 50.8435 116.727C50.9558 116.692 51.0742 116.68 51.1912 116.693C50.7875 116.823 50.4004 116.999 50.0379 117.219C49.2024 117.81 48.6019 118.676 48.3419 119.666C48.1027 120.663 48.0595 121.696 48.2147 122.71C48.3164 123.516 48.4182 123.999 48.3843 124.007V124.007Z" fill="#263238"/>
<path fill-rule="evenodd" clip-rule="evenodd" d="M49.9278 106.492C49.7026 106.791 49.4945 107.102 49.3045 107.425C48.4136 109.066 48.8802 111.114 50.3942 112.207C50.7059 112.418 51.0301 112.609 51.3652 112.78C51.2601 112.779 51.1563 112.758 51.0599 112.716C50.7929 112.622 50.5393 112.494 50.3051 112.335C48.6422 111.248 48.138 109.04 49.1646 107.34C49.3069 107.095 49.4808 106.87 49.6819 106.67C49.826 106.522 49.9193 106.462 49.9278 106.492V106.492Z" fill="#263238"/>
<path fill-rule="evenodd" clip-rule="evenodd" d="M49.5378 114.972C48.7628 115.102 47.9956 115.275 47.2397 115.489C46.5076 115.776 45.7915 116.101 45.0942 116.464C46.3195 115.398 47.9174 114.862 49.5378 114.972V114.972Z" fill="#263238"/>
<g opacity="0.3">
<path fill-rule="evenodd" clip-rule="evenodd" d="M35.8381 140.81C39.9545 143.965 45.0801 145.51 50.2541 145.156C49.18 150.14 48.1087 155.125 47.0402 160.111C46.7561 161.438 46.489 162.918 47.1844 164.088C48.1596 165.729 50.428 165.89 52.336 165.865C54.456 165.835 56.6692 165.784 58.5518 164.8C61.2188 163.41 62.6519 160.458 63.6864 157.635C64.721 154.811 65.6157 151.783 67.7441 149.659C70.1875 152.443 73.4947 154.326 77.1357 155.006C78.1957 155.201 79.3999 155.26 80.2479 154.582C81.0959 153.903 81.3376 152.708 81.1213 151.656C80.8392 150.62 80.3693 149.644 79.7348 148.777L73.5275 139.152C72.6795 137.851 71.7721 136.477 70.3517 135.858C69.2366 135.37 67.9731 135.434 66.7604 135.489C56.6262 136.079 46.5676 137.599 36.7115 140.03" fill="black"/>
</g>
<g opacity="0.3">
<path fill-rule="evenodd" clip-rule="evenodd" d="M69.0034 93.0934C66.4933 99.7248 57.1314 101.247 53.8284 107.509C50.5764 113.717 54.6086 121.925 51.259 128.099C50.0167 130.38 47.867 132.08 46.6713 134.378C45.8572 135.922 45.4375 137.77 44.1273 138.911C42.5924 140.246 40.2138 140.221 38.3694 139.356C36.525 138.491 35.1088 136.939 33.7944 135.383C31.3352 132.466 29.0244 129.311 27.8584 125.669C25.8826 119.407 27.6973 112.322 31.6744 107.09C35.6516 101.857 41.5409 98.3256 47.761 96.2098C53.9811 94.0941 60.5616 93.2969 67.1039 92.6821" fill="black"/>
</g>
<path fill-rule="evenodd" clip-rule="evenodd" d="M38.8569 75.6543C39.8072 74.1733 41.1209 72.9603 42.6729 72.1309C44.236 71.2992 46.0633 71.115 47.7609 71.6179C49.4579 72.1563 50.7464 73.5479 51.1529 75.2812C51.4201 76.6423 51.0554 78.1602 51.7593 79.3559C52.5648 80.7296 54.511 81.1621 55.1979 82.6037C55.5636 83.5086 55.4868 84.5322 54.9901 85.3724C54.4958 86.1978 53.8666 86.9344 53.1288 87.5518C53.5731 87.8301 53.9662 88.1829 54.2905 88.5948C54.6176 89.0163 54.71 89.5743 54.5365 90.0788C54.2599 90.5697 53.804 90.9344 53.2645 91.0964C50.8957 92.0949 48.2771 92.3407 45.7639 91.8003C45.094 91.6561 44.3265 91.4738 43.7753 91.8808" fill="#263238"/>
<path fill-rule="evenodd" clip-rule="evenodd" d="M55.8299 80.6873L54.4688 84.8382L63.7375 90.1001L54.4095 90.4011L55.1048 97.961L73.0612 93.5514C73.0612 93.5514 74.1382 86.2289 55.8299 80.6872L54.5579 80.382C54.0923 80.2726 53.7102 79.9413 53.536 79.4958V79.4958C53.3905 79.1387 53.1189 78.8475 52.7728 78.6775L51.2422 77.8804V79.093L52.0902 80.0809L51.9545 82.4257C51.881 83.4629 52.5706 84.4003 53.5827 84.6389L54.4307 84.8382" fill="#B78876"/>
<path fill-rule="evenodd" clip-rule="evenodd" d="M35.5245 95.6969C35.1556 95.6969 31.734 96.5449 29.7751 99.021C27.8162 101.497 24.9839 110.868 24.9839 110.868L32.1919 112.114L35.304 119.928C35.304 119.928 53.7268 117.516 52.7474 116.536C51.8007 115.665 50.8101 114.843 49.7794 114.073L54.0194 99.9496L59.1074 97.2021L57.3902 90.1467L47.1421 91.5332L35.5245 95.6969Z" fill="#FAFAFA"/>
<path fill-rule="evenodd" clip-rule="evenodd" d="M53.1372 103.316C53.1372 103.43 47.392 103.528 40.3112 103.528C33.2304 103.528 27.481 103.43 27.481 103.316C27.481 103.202 33.2262 103.104 40.3112 103.104C47.3962 103.104 53.1372 103.202 53.1372 103.316V103.316Z" fill="#1A4F8B"/>
<path fill-rule="evenodd" clip-rule="evenodd" d="M51.9883 107.467C51.9883 107.581 46.2431 107.679 39.1623 107.679C32.0815 107.679 26.332 107.581 26.332 107.467C26.332 107.353 32.073 107.255 39.1623 107.255C46.2516 107.255 51.9883 107.353 51.9883 107.467V107.467Z" fill="#1A4F8B"/>
<path fill-rule="evenodd" clip-rule="evenodd" d="M51.9883 111.945C51.9883 112.065 47.6381 112.161 42.2702 112.161C36.9024 112.161 32.5564 112.065 32.5564 111.945C32.5564 111.825 36.9066 111.737 42.2702 111.737C47.6338 111.737 51.9883 111.833 51.9883 111.945V111.945Z" fill="#1A4F8B"/>
<path fill-rule="evenodd" clip-rule="evenodd" d="M53.4765 116.269C53.4765 116.384 49.1263 116.481 43.7627 116.481C38.3991 116.481 34.0488 116.384 34.0488 116.269C34.0488 116.155 38.3948 116.057 43.7627 116.057C49.1305 116.057 53.4765 116.147 53.4765 116.269V116.269Z" fill="#1A4F8B"/>
<path fill-rule="evenodd" clip-rule="evenodd" d="M58.0772 97.732C58.0772 97.8543 55.2024 97.944 51.662 97.944C48.1216 97.944 45.2427 97.8543 45.2427 97.732C45.2427 97.6097 48.1132 97.52 51.662 97.52C55.2109 97.52 58.0772 97.6505 58.0772 97.732V97.732Z" fill="#1A4F8B"/>
<path fill-rule="evenodd" clip-rule="evenodd" d="M58.5432 93.2343C58.5432 93.3069 55.6812 93.4375 52.1535 93.5294C48.6259 93.6213 45.7554 93.6455 45.7554 93.5778C45.7554 93.5101 48.6131 93.3746 52.1451 93.2779C55.677 93.1811 58.5432 93.1666 58.5432 93.2343V93.2343Z" fill="#1A4F8B"/>
<path fill-rule="evenodd" clip-rule="evenodd" d="M33.6929 105.368C33.5353 106.538 33.3044 107.696 33.0018 108.836C32.7711 109.994 32.4695 111.137 32.0986 112.258C32.2564 111.089 32.4858 109.931 32.7855 108.79C33.014 107.631 33.3171 106.488 33.6929 105.368V105.368Z" fill="#263238"/>
<path fill-rule="evenodd" clip-rule="evenodd" d="M53.748 158.309L48.3801 175.239L54.8504 175.892L60.9305 161.179L53.748 158.309V158.309Z" fill="#B78876"/>
<path fill-rule="evenodd" clip-rule="evenodd" d="M58.4839 169.303L55.4014 176.935C55.4014 176.935 62.1345 182.638 61.702 184.105L46.667 178.674L50.9791 166.564L58.4839 169.303Z" fill="#455A64"/>
<path fill-rule="evenodd" clip-rule="evenodd" d="M50.9877 174.612C50.6552 174.594 50.3629 174.83 50.3093 175.159C50.2788 175.491 50.5135 175.789 50.8435 175.837C51.1956 175.854 51.5043 175.604 51.5601 175.256C51.5601 174.934 51.2421 174.565 50.9241 174.612" fill="#E0E0E0"/>
<path fill-rule="evenodd" clip-rule="evenodd" d="M46.667 178.674L47.1504 177.469L61.3883 183.143C61.3883 183.143 61.9522 183.673 61.702 184.118L46.667 178.674Z" fill="#E0E0E0"/>
<path fill-rule="evenodd" clip-rule="evenodd" d="M55.6731 176.961C55.6434 177.033 55.2491 176.935 54.8251 177.037C54.4011 177.139 54.0746 177.385 54.0195 177.33C53.9644 177.274 54.223 176.906 54.7657 176.774C55.3084 176.643 55.7112 176.897 55.6731 176.961V176.961Z" fill="#263238"/>
<path fill-rule="evenodd" clip-rule="evenodd" d="M57.0128 178.182C57.0128 178.262 56.6396 178.271 56.2793 178.491C55.9189 178.712 55.7408 178.996 55.656 178.996C55.5712 178.996 55.6857 178.534 56.1393 178.271C56.593 178.008 57.0382 178.114 57.0128 178.182V178.182Z" fill="#263238"/>
<path fill-rule="evenodd" clip-rule="evenodd" d="M57.2248 180.395C57.1527 180.395 57.1824 179.971 57.5173 179.649C57.8523 179.327 58.2551 179.28 58.2636 179.352C58.272 179.424 57.9795 179.564 57.7124 179.84C57.4453 180.115 57.3011 180.416 57.2248 180.395V180.395Z" fill="#263238"/>
<path fill-rule="evenodd" clip-rule="evenodd" d="M56.1646 175.142C56.1094 175.197 55.8084 174.972 55.3844 174.849C54.9604 174.726 54.5873 174.743 54.5703 174.667C54.5534 174.59 54.9646 174.438 55.4607 174.59C55.9568 174.743 56.2366 175.095 56.1646 175.142V175.142Z" fill="#263238"/>
<path fill-rule="evenodd" clip-rule="evenodd" d="M56.7753 173.586C56.5051 173.562 56.246 173.467 56.0249 173.31C55.7698 173.164 55.5347 172.986 55.3253 172.78C55.1973 172.661 55.0796 172.532 54.9733 172.394C54.9064 172.317 54.852 172.23 54.8122 172.135C54.7512 171.993 54.7949 171.827 54.9182 171.733C55.0299 171.656 55.1718 171.637 55.2998 171.682C55.3957 171.717 55.4868 171.764 55.5712 171.822C55.7223 171.919 55.8642 172.029 55.9952 172.152C56.2077 172.359 56.3865 172.598 56.5252 172.861C56.6768 173.089 56.7538 173.358 56.7457 173.632C56.7033 173.632 56.6185 173.352 56.3598 172.958C56.2097 172.729 56.0301 172.521 55.8256 172.339C55.7068 172.229 55.5776 172.131 55.4397 172.046C55.2956 171.949 55.1599 171.898 55.0963 171.953C55.0327 172.008 55.0666 171.987 55.0963 172.042C55.1295 172.111 55.1708 172.175 55.2193 172.233C55.3173 172.363 55.422 172.487 55.533 172.606C55.7262 172.805 55.9361 172.986 56.1605 173.149C56.3755 173.28 56.5809 173.426 56.7753 173.586H56.7753Z" fill="#263238"/>
<path fill-rule="evenodd" clip-rule="evenodd" d="M56.6396 173.658C56.575 173.39 56.5988 173.109 56.7075 172.856C56.847 172.402 57.1097 171.996 57.4664 171.682C57.6214 171.511 57.8541 171.432 58.0812 171.474C58.2172 171.528 58.3108 171.655 58.3229 171.801C58.3303 171.903 58.3218 172.006 58.2975 172.106C58.2631 172.282 58.2016 172.453 58.1151 172.61C57.9729 172.878 57.7659 173.105 57.5131 173.272C57.0891 173.556 56.7371 173.535 56.7414 173.505C56.9682 173.39 57.1876 173.261 57.3986 173.119C57.6075 172.95 57.7768 172.737 57.8947 172.496C57.9608 172.361 58.0092 172.219 58.0388 172.072C58.0727 171.907 58.06 171.754 57.9922 171.75C57.9243 171.745 57.7463 171.796 57.6403 171.902C57.5182 172.005 57.4061 172.118 57.3053 172.241C57.1332 172.455 56.9906 172.69 56.8813 172.941C56.7075 173.357 56.6863 173.662 56.6396 173.658V173.658Z" fill="#263238"/>
<path fill-rule="evenodd" clip-rule="evenodd" d="M74.1211 142.371L82.1347 156.299L88.6897 152.093L80.6422 137.953L74.1211 142.371V142.371Z" fill="#B78876"/>
<path fill-rule="evenodd" clip-rule="evenodd" d="M86.4256 148.112L90.5681 155.252C90.5681 155.252 99.2007 153.437 100.095 154.679L86.5613 163.202L79.6543 152.352L86.4256 148.112Z" fill="#455A64"/>
<path fill-rule="evenodd" clip-rule="evenodd" d="M86.0101 157.291C85.7873 157.538 85.7873 157.914 86.0101 158.16C86.25 158.38 86.6182 158.38 86.8581 158.16C87.0885 157.892 87.0794 157.493 86.8369 157.236C86.5568 157.027 86.1617 157.073 85.938 157.342" fill="#E0E0E0"/>
<path fill-rule="evenodd" clip-rule="evenodd" d="M86.5612 163.193L85.9082 162.074L99.1285 154.323C99.1285 154.323 99.896 154.205 100.095 154.671L86.5612 163.193Z" fill="#E0E0E0"/>
<path fill-rule="evenodd" clip-rule="evenodd" d="M90.742 155.036C90.7802 155.103 90.4707 155.341 90.2799 155.756C90.0891 156.172 90.0891 156.562 90.0128 156.575C89.9364 156.587 89.7923 156.151 90.0128 155.642C90.2332 155.133 90.7166 154.964 90.742 155.036V155.036Z" fill="#263238"/>
<path fill-rule="evenodd" clip-rule="evenodd" d="M92.5313 154.726C92.5864 154.781 92.3701 155.074 92.3235 155.498C92.2769 155.922 92.3956 156.252 92.3235 156.291C92.2514 156.329 91.9801 155.985 92.0479 155.443C92.1157 154.9 92.4889 154.667 92.5313 154.726V154.726Z" fill="#263238"/>
<path fill-rule="evenodd" clip-rule="evenodd" d="M94.4094 155.917C94.3542 155.973 94.0574 155.701 93.9854 155.231C93.9133 154.76 94.1465 154.425 94.2101 154.459C94.2737 154.493 94.2101 154.811 94.2567 155.197C94.3033 155.583 94.4687 155.871 94.4094 155.917V155.917Z" fill="#263238"/>
<path fill-rule="evenodd" clip-rule="evenodd" d="M89.6185 153.513C89.6185 153.594 89.2666 153.692 88.9104 153.937C88.5542 154.183 88.338 154.497 88.2659 154.463C88.1938 154.429 88.3295 154.014 88.7535 153.713C89.1775 153.412 89.6185 153.441 89.6185 153.513V153.513Z" fill="#263238"/>
<path fill-rule="evenodd" clip-rule="evenodd" d="M88.7577 152.093C88.7577 152.118 88.5414 152.326 88.0793 152.517C87.806 152.625 87.5216 152.701 87.2313 152.746C87.0582 152.768 86.8841 152.78 86.7098 152.784C86.6069 152.788 86.504 152.776 86.4045 152.75C86.2556 152.71 86.1528 152.574 86.1543 152.419C86.1615 152.283 86.2341 152.158 86.3494 152.084C86.4356 152.032 86.5282 151.991 86.6249 151.962C87.0733 151.808 87.5535 151.771 88.0199 151.856C88.5202 151.949 88.7831 152.131 88.7661 152.157C88.7492 152.182 88.4693 152.084 87.9987 152.046C87.7238 152.026 87.4475 152.04 87.1761 152.089C87.0189 152.117 86.8644 152.158 86.714 152.212C86.5444 152.267 86.4214 152.343 86.4257 152.428C86.4299 152.513 86.4257 152.47 86.4893 152.496C86.5629 152.513 86.6385 152.52 86.714 152.517C87.1532 152.523 87.5908 152.461 88.0114 152.335C88.2539 152.236 88.5033 152.155 88.7577 152.093H88.7577Z" fill="#263238"/>
<path fill-rule="evenodd" clip-rule="evenodd" d="M88.7322 152.241C88.7322 152.267 88.4354 152.11 88.1386 151.699C87.9684 151.455 87.8421 151.184 87.7655 150.897C87.7197 150.728 87.6899 150.555 87.6764 150.38C87.6374 150.151 87.721 149.918 87.8969 149.765C88.0186 149.688 88.1737 149.688 88.2955 149.765C88.3809 149.822 88.458 149.891 88.5244 149.969C88.6412 150.107 88.7382 150.262 88.8127 150.427C88.9333 150.704 88.9843 151.007 88.9612 151.309C88.9188 151.826 88.694 152.08 88.6728 152.059C88.7197 151.81 88.7523 151.558 88.7704 151.304C88.7649 151.037 88.7013 150.773 88.5838 150.533C88.5166 150.392 88.4295 150.262 88.3252 150.147C88.2149 150.02 88.0877 149.935 88.0411 149.986C87.9554 150.088 87.9197 150.223 87.9436 150.355C87.9511 150.514 87.9724 150.673 88.0072 150.83C88.0694 151.095 88.1693 151.351 88.304 151.588C88.5329 152.004 88.7619 152.208 88.7322 152.241V152.241Z" fill="#263238"/>
<path fill-rule="evenodd" clip-rule="evenodd" d="M50.2668 140.412L66.0057 129.71L75.9316 149.032L84.9543 144.143C84.9543 144.143 74.562 118.788 70.8308 117.982C68.7405 117.524 44.7676 122.099 44.7676 122.099L42.0879 120.755L35.3039 119.928L34.8799 121.027C32.4853 127.09 32.7593 133.883 35.6346 139.733L35.9653 140.408L50.2668 140.412Z" fill="#263238"/>
<path fill-rule="evenodd" clip-rule="evenodd" d="M44.7421 127.022C44.8608 127.552 57.8861 139.742 57.8861 139.742L50.3813 164.966L61.5834 167.107L72.8321 136.723L52.2723 116.553L42.8638 120.484L44.7421 127.022Z" fill="#263238"/>
<path fill-rule="evenodd" clip-rule="evenodd" d="M66.0058 129.706C66.0397 129.757 62.5417 132.191 58.2 135.146C53.8582 138.101 50.3051 140.454 50.2669 140.412C50.2288 140.369 53.7268 137.923 58.0728 134.968C62.4188 132.012 65.9676 129.655 66.0058 129.706V129.706Z" fill="#455A64"/>
<path fill-rule="evenodd" clip-rule="evenodd" d="M74.0831 145.428C73.938 145.247 73.8102 145.052 73.7015 144.847C73.4683 144.465 73.146 143.901 72.7517 143.206C71.9673 141.811 70.9243 139.861 69.8219 137.694C68.7195 135.527 67.7443 133.53 67.0616 132.085C66.7182 131.36 66.4468 130.77 66.2645 130.363C66.1573 130.157 66.0707 129.941 66.0059 129.719C66.1338 129.912 66.2472 130.115 66.3451 130.325L67.1931 132.021C67.9308 133.484 68.9187 135.438 70.0084 137.605C71.0981 139.772 72.1284 141.739 72.8789 143.151C73.2393 143.834 73.5403 144.398 73.7693 144.826C73.8893 145.018 73.9942 145.219 74.0831 145.428H74.0831Z" fill="#455A64"/>
<path fill-rule="evenodd" clip-rule="evenodd" d="M60.2223 135.231C59.8877 136.161 59.4853 137.065 59.0181 137.936C58.6147 138.837 58.1457 139.707 57.6147 140.539C58.3511 138.707 59.2227 136.933 60.2223 135.231V135.231Z" fill="#455A64"/>
<path fill-rule="evenodd" clip-rule="evenodd" d="M24.9837 110.868L22.4397 120.263C22.1113 121.479 22.2632 122.774 22.8637 123.88V123.88C23.917 125.835 26.1483 126.844 28.3121 126.344L48.4733 121.379L46.3533 117.189L30.4703 118.567L32.1663 112.114L24.9837 110.868Z" fill="#B78876"/>
<path fill-rule="evenodd" clip-rule="evenodd" d="M33.9258 125.127L34.1887 123.761L45.1151 121.798L48.2909 104.953L68.5835 102.536L65.1746 120.518L33.9258 125.127V125.127Z" fill="#455A64"/>
<path fill-rule="evenodd" clip-rule="evenodd" d="M57.4029 114.026C56.9251 114.005 56.5107 113.69 56.3637 113.235C56.2166 112.78 56.3678 112.281 56.743 111.985C57.1181 111.688 57.6381 111.656 58.0469 111.904C58.4557 112.152 58.6672 112.628 58.5774 113.098C58.5066 113.677 57.9827 114.091 57.4029 114.026V114.026Z" fill="#EBEBEB"/>
<path fill-rule="evenodd" clip-rule="evenodd" d="M36.894 76.8119L36.9322 78.0288L37.3901 96.2608C37.4452 98.3808 39.3066 100.017 41.5708 99.9411V99.9411C43.8604 99.869 45.7005 98.0755 45.6836 95.9343C45.6624 93.6914 45.6836 91.3254 45.6836 91.3254C45.6836 91.3254 48.571 90.8124 49.1264 87.0303C49.402 85.152 49.2706 82.0738 49.084 79.5594C49.0036 78.4758 48.4842 77.472 47.6461 76.7804C46.8081 76.0889 45.7239 75.7694 44.6447 75.8961L36.894 76.8119Z" fill="#B78876"/>
<path fill-rule="evenodd" clip-rule="evenodd" d="M47.6213 81.6751C47.6262 81.9381 47.4217 82.1575 47.1591 82.1712C47.0364 82.1818 46.9146 82.1429 46.8207 82.0633C46.7268 81.9837 46.6685 81.8699 46.6588 81.7472C46.6538 81.4858 46.8558 81.267 47.1167 81.2511C47.3731 81.2291 47.5988 81.4188 47.6213 81.6751V81.6751Z" fill="#263238"/>
<path fill-rule="evenodd" clip-rule="evenodd" d="M48.4352 81.1833C48.3759 81.2469 48.0112 80.9797 47.4855 80.984C46.9597 80.9882 46.5866 81.2596 46.5272 81.196C46.4679 81.1324 46.5612 81.0518 46.7265 80.9289C46.9497 80.7706 47.2161 80.6848 47.4897 80.6829C47.7607 80.6803 48.0259 80.7618 48.2487 80.9161C48.4098 81.0518 48.4649 81.1536 48.4352 81.1833V81.1833Z" fill="#263238"/>
<path fill-rule="evenodd" clip-rule="evenodd" d="M42.4824 81.8617C42.4896 82.1255 42.2839 82.3463 42.0203 82.3578C41.7639 82.3798 41.5382 82.1901 41.5157 81.9338C41.5109 81.6716 41.7159 81.4534 41.9779 81.4419C42.1006 81.4302 42.2229 81.4679 42.3176 81.5467C42.4124 81.6255 42.4717 81.7389 42.4824 81.8617V81.8617Z" fill="#263238"/>
<path fill-rule="evenodd" clip-rule="evenodd" d="M43.3175 81.3402C43.2582 81.4038 42.8935 81.1367 42.3678 81.141C41.842 81.1452 41.4689 81.4165 41.4095 81.353C41.3502 81.2894 41.4392 81.2088 41.6046 81.0858C41.8293 80.9275 42.0971 80.8417 42.372 80.8399C42.6417 80.8373 42.9055 80.9188 43.1267 81.0731C43.2879 81.1961 43.3472 81.3106 43.3175 81.3402V81.3402Z" fill="#263238"/>
<path fill-rule="evenodd" clip-rule="evenodd" d="M45.2509 85.1774C45.5258 85.0888 45.8106 85.0347 46.0989 85.0163C46.2346 85.0163 46.3575 84.9739 46.3787 84.8806C46.3887 84.744 46.3562 84.6078 46.2854 84.4905L45.8826 83.4814C45.507 82.6283 45.2008 81.7464 44.9668 80.8441C45.4121 81.6591 45.788 82.5101 46.0904 83.3881L46.4805 84.4015C46.5646 84.5615 46.5916 84.7455 46.5568 84.923C46.5182 85.0185 46.4389 85.0916 46.3406 85.1223C46.2659 85.1427 46.189 85.1541 46.1116 85.1562C45.8268 85.2005 45.5375 85.2076 45.2509 85.1774V85.1774Z" fill="#263238"/>
<path fill-rule="evenodd" clip-rule="evenodd" d="M45.6835 91.3382C43.9022 91.3951 42.1403 90.9546 40.5955 90.0662C40.5955 90.0662 41.8675 92.6441 45.6241 92.2455L45.6835 91.3382Z" fill="#AA6550"/>
<path fill-rule="evenodd" clip-rule="evenodd" d="M43.5251 80.4795C43.47 80.6194 42.9527 80.5304 42.3379 80.5728C41.7231 80.6152 41.2228 80.7636 41.1465 80.6321C41.1126 80.5685 41.2058 80.4413 41.4094 80.3141C41.6817 80.1543 41.9886 80.0627 42.304 80.047C42.6181 80.0234 42.9333 80.0742 43.2241 80.1954C43.4446 80.2972 43.5506 80.4159 43.5251 80.4795V80.4795Z" fill="#263238"/>
<path fill-rule="evenodd" clip-rule="evenodd" d="M48.2189 79.3558C48.1256 79.4745 47.7652 79.3558 47.337 79.3558C46.9087 79.3558 46.5399 79.4449 46.4551 79.3219C46.3703 79.1989 46.4551 79.1438 46.6289 79.0293C47.0653 78.7473 47.6293 78.7591 48.0535 79.059C48.2062 79.1947 48.2571 79.3177 48.2189 79.3558V79.3558Z" fill="#263238"/>
<path fill-rule="evenodd" clip-rule="evenodd" d="M45.1961 87.0642C45.0434 87.0887 44.8869 87.0727 44.7424 87.0176L44.3184 86.8989C44.1997 86.8607 44.0682 86.8056 43.9198 86.7505C43.771 86.7097 43.6361 86.6291 43.5297 86.5173C43.4407 86.4028 43.4577 86.1993 43.6612 86.017C43.9478 85.8081 44.3177 85.7506 44.6543 85.8625C44.9908 85.9744 45.2526 86.242 45.3572 86.5809C45.4462 86.848 45.336 87.0261 45.1961 87.0642V87.0642Z" fill="#AA6550"/>
<path fill-rule="evenodd" clip-rule="evenodd" d="M45.2681 87.0175C45.2172 87.0556 44.9628 86.5341 44.3523 86.3772C43.9789 86.3236 43.5981 86.3659 43.2456 86.5002C43.2456 86.5002 43.3135 86.3645 43.5212 86.2585C43.7957 86.1216 44.1104 86.0885 44.4074 86.1652C44.7053 86.2407 44.9659 86.4214 45.1409 86.674C45.2723 86.8648 45.2935 87.009 45.2681 87.0175V87.0175Z" fill="#263238"/>
<path fill-rule="evenodd" clip-rule="evenodd" d="M41.2611 74.3612C42.4612 76.2534 42.1767 78.7268 40.5784 80.2972C39.6753 81.1452 38.3312 81.7939 38.2422 83.0235C38.1404 84.3846 39.7177 85.4022 39.7177 86.7674C39.7177 88.1327 38.1023 89.0655 37.7843 90.435C37.5299 91.5374 38.2083 92.6398 38.9545 93.4751C39.7008 94.3104 40.6505 95.0482 41.0745 96.0827C41.5294 97.2606 41.4834 98.5732 40.9473 99.7164C40.4107 100.841 39.6947 101.87 38.8273 102.765C37.6998 102.361 36.526 102.101 35.3336 101.989C35.4056 101.54 35.482 101.086 35.5583 100.636C35.5353 101.176 35.1669 101.638 34.6467 101.781C34.1355 101.911 33.6009 101.919 33.0864 101.802C31.4972 101.551 29.9355 101.15 28.4224 100.603C29.099 99.9927 29.6719 99.2766 30.1184 98.4826C30.565 97.6672 30.5825 96.6844 30.165 95.8538C29.7919 95.2178 29.105 94.8107 28.7616 94.1578C28.2485 93.1826 28.6725 91.9445 29.4018 91.1177C30.1311 90.2909 31.1232 89.7524 31.9924 89.074C32.8616 88.3956 33.6588 87.4798 33.7266 86.3774C33.8199 84.9527 32.6624 83.6511 32.8065 82.2306C32.9676 80.611 34.6806 79.6188 35.3505 78.1348C35.8381 77.0621 35.7745 75.7392 36.5208 74.8276C37.1142 74.1681 37.9812 73.8232 38.8655 73.8948C39.7373 73.9705 40.5766 74.2619 41.3077 74.7428" fill="#263238"/>
<path fill-rule="evenodd" clip-rule="evenodd" d="M45.9887 91.7452C45.3103 92.1183 45.3485 93.1571 45.764 93.8143C46.1795 94.4715 46.8452 94.9422 47.2565 95.6036C47.9745 96.851 47.6818 98.435 46.5654 99.3433L48.1935 99.9581L48.5497 99.7588L49.5503 99.1907L49.0797 100.348H50.1227C51.2531 100.371 52.2984 99.7505 52.8187 98.7468C53.3391 97.743 53.244 96.5309 52.5734 95.6206C52.1494 95.027 51.4795 94.5564 51.3311 93.8398C51.1573 92.9706 51.8145 92.1862 52.1325 91.3636C52.6517 89.9381 52.1927 88.3404 50.9962 87.4077" fill="#263238"/>
<path fill-rule="evenodd" clip-rule="evenodd" d="M13.8707 57.4309C14.0656 57.5276 14.1888 57.7264 14.1887 57.9439V60.7677C14.1883 60.9445 14.1052 61.1109 13.964 61.2172C13.8234 61.3266 13.6386 61.3614 13.4679 61.3105C12.9975 61.1902 12.4984 61.2667 12.0856 61.5225C11.7051 61.7398 11.4318 62.1052 11.3309 62.5316C11.2545 62.965 11.3587 63.4108 11.6192 63.7654C11.8899 64.1674 12.3095 64.4451 12.7852 64.5371C13.7706 64.6357 14.693 64.039 15.007 63.0997C15.0683 62.9073 15.2276 62.7622 15.4249 62.7191C15.6223 62.676 15.8276 62.7415 15.9635 62.8909C16.0994 63.0402 16.1454 63.2508 16.084 63.4432C15.5974 64.9127 14.1446 65.8376 12.6072 65.6565C11.823 65.522 11.1286 65.0713 10.6864 64.4099C10.2484 63.7964 10.08 63.0306 10.22 62.2899C10.3849 61.5571 10.8452 60.9249 11.492 60.543C11.9617 60.2608 12.5002 60.114 13.0481 60.119L13.0481 57.9439C13.0482 57.6299 13.3027 57.3756 13.6165 57.3757C13.7042 57.3752 13.791 57.3941 13.8707 57.4309V57.4309Z" fill="#1A4F8B"/>
<path fill-rule="evenodd" clip-rule="evenodd" d="M13.0904 56.2437C13.0858 55.989 13.2881 55.7787 13.5427 55.7733C13.7973 55.7679 14.0083 55.9695 14.0145 56.2241C14.0207 56.4786 13.8199 56.6903 13.5653 56.6973C13.442 56.7008 13.3224 56.6547 13.2332 56.5695C13.1441 56.4843 13.0926 56.367 13.0904 56.2437V56.2437Z" fill="#1A4F8B"/>
<path fill-rule="evenodd" clip-rule="evenodd" d="M26.9087 71.3635C26.9087 71.3635 26.7688 71.3635 26.5356 71.4822C26.2162 71.6197 25.9468 71.8521 25.7639 72.1479C25.6341 72.3502 25.5515 72.5792 25.5222 72.8178C25.4896 73.0915 25.5383 73.3687 25.6622 73.6149C25.9221 74.2138 26.5282 74.5868 27.18 74.5489C27.8317 74.511 28.3906 74.0703 28.5793 73.4453C28.6742 73.1858 28.6904 72.9041 28.6259 72.6355C28.5666 72.4019 28.4582 72.1836 28.3079 71.9952C28.0897 71.7221 27.7942 71.5212 27.4599 71.4186C27.2183 71.3508 27.0741 71.3592 27.0741 71.3465H27.1759C27.2182 71.3428 27.2607 71.3428 27.3031 71.3465C27.3589 71.3497 27.4142 71.3582 27.4684 71.372C27.8273 71.4567 28.1489 71.6562 28.3843 71.9401C28.5516 72.1333 28.6721 72.3626 28.7362 72.61C28.8058 72.8904 28.7925 73.185 28.698 73.458C28.5944 73.7677 28.4064 74.0422 28.1553 74.2509C27.8877 74.481 27.5533 74.6193 27.2013 74.6452C26.8493 74.6592 26.502 74.5612 26.2091 74.3654C25.9342 74.189 25.7139 73.9394 25.5731 73.6446C25.4471 73.3809 25.3986 73.0868 25.4332 72.7966C25.4691 72.5431 25.5618 72.301 25.7046 72.0885C25.9076 71.7786 26.2049 71.5422 26.5526 71.4144C26.6066 71.3951 26.6618 71.3795 26.7179 71.3677C26.7579 71.3555 26.7992 71.3484 26.8409 71.3465C26.8642 71.3491 26.887 71.3548 26.9087 71.3635V71.3635Z" fill="#263238"/>
<path fill-rule="evenodd" clip-rule="evenodd" d="M31.0468 75.4636C31.0468 75.4636 30.9578 75.4848 30.8179 75.5484C30.6162 75.6372 30.4462 75.7851 30.3303 75.9724C30.152 76.2433 30.1294 76.588 30.2709 76.8798C30.4327 77.2485 30.8068 77.4775 31.2088 77.4539C31.6107 77.4302 31.9555 77.1589 32.0729 76.7738C32.1803 76.4673 32.1174 76.127 31.9075 75.8792C31.7707 75.7061 31.5843 75.5789 31.3733 75.5145C31.2249 75.4679 31.1359 75.4721 31.1359 75.4594C31.2179 75.438 31.304 75.438 31.386 75.4594C31.7801 75.5529 32.092 75.8535 32.2001 76.2438C32.2527 76.4252 32.2527 76.6178 32.2001 76.7992C32.0721 77.2303 31.6879 77.5351 31.2389 77.5617C30.79 77.5883 30.3725 77.3309 30.1946 76.9179C30.1098 76.7474 30.0788 76.5553 30.1055 76.3667C30.1284 76.2056 30.1878 76.0519 30.2794 75.9173C30.4097 75.721 30.6001 75.5722 30.8221 75.4933C30.8939 75.4671 30.9706 75.4569 31.0468 75.4636V75.4636Z" fill="#263238"/>
<path fill-rule="evenodd" clip-rule="evenodd" d="M26.2387 62.9598C26.2387 62.9598 26.2387 62.8877 26.2387 62.7478C26.2387 62.6079 26.2387 62.3959 26.2387 62.1245C26.2387 61.9846 26.2387 61.832 26.2387 61.6624C26.2387 61.4928 26.2133 61.3104 26.2005 61.1112C26.1878 60.9119 26.1708 60.6872 26.1496 60.4667C26.1443 60.3482 26.1287 60.2305 26.103 60.1148L26.0394 59.7416C25.8302 58.4951 25.4343 57.2873 24.8649 56.1588C24.124 54.6657 23.1035 53.3286 21.8588 52.2199L21.3288 51.7577C21.1422 51.6136 20.9429 51.4779 20.7479 51.3337L20.4468 51.1217C20.3522 51.0438 20.2499 50.9756 20.1416 50.9182L19.4886 50.5239C19.3784 50.4603 19.2724 50.3924 19.1579 50.3331L18.806 50.172L18.0979 49.8497C17.852 49.748 17.5976 49.6716 17.3474 49.5826L16.9658 49.4512L16.7708 49.3876L16.5715 49.3409C16.0363 49.1996 15.4924 49.0934 14.9433 49.0229C14.6635 48.9932 14.3794 48.9424 14.0953 48.9254L13.2473 48.9C13.1032 48.9 12.959 48.9 12.8233 48.9L12.3993 48.9339C12.1025 48.9593 11.8057 48.9678 11.5132 49.006C10.9134 49.0912 10.32 49.2158 9.7366 49.3791L9.29141 49.5063C9.21934 49.5063 9.14301 49.5444 9.07093 49.5699L8.8547 49.6547L7.98125 49.9939C7.69718 50.1211 7.41733 50.2737 7.13326 50.4179C6.99333 50.4942 6.84917 50.5536 6.70925 50.6384L6.28525 50.897C5.73579 51.2413 5.21024 51.6223 4.71222 52.0376L3.99566 52.7117L3.81334 52.8813L3.64798 53.0679L3.3215 53.4452L2.99078 53.8184L2.69398 54.2424L2.40142 54.6664L2.25302 54.8741C2.20638 54.9462 2.16398 55.0183 2.12158 55.0904L1.60854 55.9765C1.46862 56.286 1.32446 56.5956 1.18454 56.9093C0.0809816 59.5023 -0.143871 62.3852 0.544295 65.118L0.824138 66.1101L1.19302 67.0599L1.2863 67.2973L1.40078 67.522L1.62974 67.9757L1.85446 68.4209L2.12582 68.8449L2.39294 69.2689L2.52438 69.4767L2.67702 69.6717L3.28334 70.4519C3.71149 70.9387 4.17186 71.3963 4.66133 71.8214L5.02174 72.1394C5.14046 72.2454 5.27614 72.3302 5.40334 72.4235C5.66198 72.6058 5.91214 72.8008 6.17502 72.9704L6.98061 73.4199L7.17989 73.5386L7.39189 73.6361L7.81589 73.8269C8.36673 74.0781 8.93325 74.2934 9.5119 74.4714C9.80021 74.5562 10.0928 74.6113 10.3599 74.6834L10.7839 74.7852C10.928 74.8148 11.0722 74.8233 11.2079 74.8445L12.0559 74.9548C12.34 74.9844 12.624 74.9548 12.9039 74.9887C13.4586 75.0074 14.014 74.9876 14.566 74.9293H14.7695L14.9688 74.8954L15.3673 74.8276C15.6302 74.7767 15.8931 74.7428 16.1475 74.6792L16.9022 74.4714L17.2753 74.3696L17.6315 74.2297L18.3311 73.9583C18.4468 73.917 18.5589 73.8659 18.666 73.8057L18.9968 73.6403C19.213 73.5301 19.4208 73.4283 19.637 73.3139L20.2306 72.9365C21.6417 72.034 22.8642 70.8662 23.8304 69.4979C23.9364 69.3495 24.0466 69.2053 24.1484 69.0739L24.4112 68.6244L24.6656 68.2004C24.708 68.1283 24.7504 68.0605 24.7886 67.9884C24.8268 67.9163 24.8522 67.84 24.8861 67.7679L25.2677 66.9454C25.378 66.6825 25.4543 66.4154 25.5433 66.1737L25.6705 65.8133C25.7122 65.7031 25.7448 65.5896 25.7681 65.4741L25.9207 64.8423C25.9631 64.6473 26.014 64.4692 26.0437 64.3039C26.0733 64.1385 26.0861 63.9859 26.1073 63.8502C26.1412 63.5788 26.1709 63.3753 26.1921 63.2311C26.2133 63.087 26.226 63.0234 26.226 63.0234C26.226 63.0234 26.226 63.0954 26.226 63.2354L26.1497 63.8544C26.1497 63.9901 26.1157 64.1427 26.0945 64.3081C26.0733 64.4735 26.0182 64.6558 25.9758 64.8508C25.9334 65.0458 25.8825 65.2748 25.8317 65.4826C25.809 65.5996 25.7764 65.7145 25.7341 65.826C25.6917 65.9447 25.6536 66.0635 25.6112 66.1864C25.5221 66.4323 25.4501 66.6995 25.3356 66.9666C25.2211 67.2337 25.0897 67.5051 24.9625 67.8146L24.8607 68.0351C24.8268 68.1071 24.7801 68.1792 24.742 68.2513C24.6572 68.3912 24.5724 68.5396 24.4876 68.6753C24.4028 68.811 24.3137 68.9763 24.2247 69.1332C24.1357 69.2901 24.0127 69.4258 23.9067 69.5784C22.9324 70.9398 21.7043 72.1002 20.29 72.9959L19.6921 73.3775C19.4844 73.492 19.2681 73.598 19.0476 73.7082L18.7212 73.8778C18.6122 73.9372 18.4988 73.9883 18.382 74.0304L17.6739 74.306L17.3177 74.446L16.9446 74.552L16.1857 74.764C15.927 74.8275 15.6599 74.8615 15.397 74.9124L14.9942 74.9844L14.7949 75.0184H14.5872C14.0326 75.0795 13.4744 75.1021 12.9166 75.0862C12.6325 75.0862 12.3442 75.0862 12.0686 75.0523L11.2206 74.942C11.0722 74.942 10.9281 74.9124 10.7966 74.8784L10.3726 74.7809C10.0843 74.7088 9.7875 74.6537 9.49917 74.5689C8.91949 74.3923 8.35278 74.1755 7.80317 73.9202L7.37917 73.7294L7.16717 73.6319L6.96365 73.5132L6.14533 73.0383C5.88245 72.8687 5.62805 72.6694 5.36941 72.4871C5.23797 72.3896 5.10229 72.3048 4.98357 72.1988L4.61893 71.8808C4.10202 71.452 3.61603 70.9873 3.16462 70.49L2.54981 69.7056L2.39717 69.5064L2.26149 69.2944L1.99437 68.8704L1.72301 68.4464L1.49405 67.9969L1.26085 67.539L1.14637 67.31L1.04461 67.0599C0.917412 66.7419 0.794452 66.4196 0.671491 66.1016C0.548531 65.7836 0.484932 65.436 0.387412 65.101C-0.29937 62.3441 -0.068647 59.4385 1.04461 56.8245L1.46861 55.879C1.64245 55.5822 1.81629 55.2854 1.98589 54.9886C2.03253 54.9165 2.07069 54.8402 2.11733 54.7681L2.26573 54.5604L2.56677 54.1364L2.86357 53.7124L3.19853 53.3308L3.52925 52.9534L3.69461 52.7668L3.87693 52.593L4.60197 51.9104C5.105 51.4926 5.63627 51.1101 6.19198 50.7655L6.61597 50.5069C6.75165 50.4179 6.90005 50.3585 7.03997 50.2822C7.32405 50.1423 7.60389 49.9854 7.88797 49.8582L8.76989 49.5148L8.99037 49.43L9.21085 49.3664L9.66029 49.2434C10.2476 49.0785 10.8454 48.9539 11.4496 48.8703C11.7506 48.8321 12.0474 48.8194 12.3442 48.794L12.7682 48.7643C12.9124 48.7643 13.0608 48.7643 13.1922 48.7643L14.0656 48.7897C14.354 48.7897 14.6338 48.8576 14.9136 48.8915C15.4678 48.9601 16.0163 49.0693 16.5545 49.218L16.7581 49.2646C16.8217 49.2646 16.8853 49.307 16.9489 49.3282L17.3347 49.4596C17.5891 49.5529 17.8477 49.625 18.0894 49.7268L18.8526 50.0999L19.2045 50.261L19.5395 50.4518L20.1925 50.8334C20.3004 50.8952 20.4038 50.9647 20.502 51.0412L20.803 51.2574C20.9981 51.4016 21.2016 51.5372 21.3881 51.6814L21.9224 52.1478C23.1776 53.2707 24.2041 54.6254 24.9455 56.1376C25.5151 57.2724 25.907 58.4879 26.1073 59.7416C26.1285 59.8688 26.1496 59.996 26.1708 60.1148C26.1928 60.2324 26.207 60.3514 26.2132 60.4709C26.2132 60.6999 26.2472 60.9161 26.2599 61.1154C26.2726 61.3147 26.2896 61.5012 26.2938 61.6708C26.298 61.8404 26.2938 61.9931 26.2938 62.133C26.2938 62.4044 26.2938 62.6121 26.2938 62.7563L26.2387 62.9598Z" fill="#263238"/>
<rect x="83.1987" y="0.118652" width="87.5348" height="132.877" fill="white"/>
<rect x="83.0205" y="6.88574" width="87.5602" height="57.1849" fill="#F5F5F5"/>
<path fill-rule="evenodd" clip-rule="evenodd" d="M104.411 72.1478V73.4198H106.281V73.8778H104.411V75.3872H103.877V71.656H106.514V72.1478H104.411Z" fill="#263238"/>
<path fill-rule="evenodd" clip-rule="evenodd" d="M106.837 73.988C106.826 73.3907 107.178 72.8464 107.727 72.6107C108.276 72.3749 108.913 72.4944 109.339 72.9131C109.765 73.3319 109.896 73.9666 109.67 74.5195C109.443 75.0724 108.905 75.4337 108.308 75.4338C107.917 75.4516 107.536 75.3059 107.257 75.0316C106.978 74.7573 106.826 74.3792 106.837 73.988V73.988ZM109.258 73.988C109.235 73.4667 108.797 73.0608 108.275 73.0768C107.754 73.0929 107.342 73.525 107.351 74.0467C107.36 74.5684 107.786 74.9862 108.308 74.9844C108.57 74.9911 108.823 74.8866 109.004 74.6968C109.185 74.507 109.277 74.2495 109.258 73.988V73.988Z" fill="#263238"/>
<path fill-rule="evenodd" clip-rule="evenodd" d="M112.005 72.5464V73.0425H111.887C111.635 73.0278 111.39 73.126 111.217 73.3104C111.045 73.4948 110.964 73.7463 110.996 73.9965L110.996 75.4042H110.483V72.5718H110.975V73.0425C111.197 72.6957 111.596 72.5038 112.005 72.5464V72.5464Z" fill="#263238"/>
<path fill-rule="evenodd" clip-rule="evenodd" d="M115.308 72.5718V75.0098C115.308 76.0105 114.804 76.4599 113.845 76.4599C113.36 76.4812 112.883 76.3311 112.497 76.0359L112.739 75.6416C113.049 75.8853 113.434 76.0154 113.829 76.0105C114.494 76.0105 114.799 75.701 114.799 75.0607V74.836C114.54 75.1216 114.167 75.277 113.782 75.26C113.275 75.2882 112.794 75.034 112.533 74.5993C112.271 74.1645 112.271 73.6207 112.533 73.186C112.794 72.7513 113.275 72.497 113.782 72.5252C114.184 72.507 114.571 72.6799 114.825 72.9916V72.5676L115.308 72.5718ZM114.808 73.9074C114.774 73.3949 114.349 72.9965 113.835 72.9965C113.321 72.9965 112.896 73.3949 112.862 73.9074C112.896 74.4199 113.321 74.8183 113.835 74.8183C114.348 74.8183 114.774 74.4199 114.808 73.9074V73.9074Z" fill="#263238"/>
<path fill-rule="evenodd" clip-rule="evenodd" d="M116.025 73.988C116.015 73.3907 116.366 72.8464 116.915 72.6107C117.464 72.3749 118.101 72.4944 118.527 72.9131C118.953 73.3319 119.084 73.9666 118.858 74.5195C118.632 75.0724 118.094 75.4337 117.496 75.4338C117.105 75.4516 116.725 75.3059 116.445 75.0316C116.166 74.7573 116.014 74.3792 116.025 73.988V73.988ZM118.446 73.988C118.423 73.4667 117.985 73.0608 117.464 73.0768C116.942 73.0929 116.53 73.525 116.539 74.0467C116.548 74.5684 116.974 74.9862 117.496 74.9844C117.758 74.9911 118.011 74.8866 118.192 74.6968C118.373 74.507 118.465 74.2495 118.446 73.988H118.446Z" fill="#263238"/>
<path fill-rule="evenodd" clip-rule="evenodd" d="M121.261 75.2345C121.083 75.3692 120.865 75.4395 120.642 75.4338C120.399 75.4623 120.156 75.3785 119.982 75.206C119.808 75.0336 119.721 74.7913 119.748 74.5476V72.9958H119.264V72.5718H119.764V71.9528H120.273V72.5718H121.083V72.9958H120.273V74.5264C120.259 74.6474 120.297 74.7688 120.378 74.8597C120.459 74.9506 120.575 75.0022 120.697 75.0013C120.842 75.002 120.982 74.9542 121.096 74.8656L121.261 75.2345Z" fill="#263238"/>
<path fill-rule="evenodd" clip-rule="evenodd" d="M126.239 73.988C126.26 74.3745 126.116 74.7517 125.844 75.027C125.572 75.3022 125.197 75.45 124.81 75.4339C124.427 75.4457 124.062 75.274 123.827 74.9717V76.4345H123.313V72.5719H123.805V73.0171C124.042 72.7038 124.418 72.5265 124.81 72.5422C125.197 72.5261 125.572 72.6739 125.844 72.9491C126.116 73.2244 126.26 73.6016 126.239 73.988V73.988ZM125.722 73.988C125.699 73.4673 125.262 73.0616 124.741 73.0768C124.22 73.0921 123.807 73.5228 123.815 74.0439C123.822 74.5651 124.247 74.9839 124.768 74.9844C125.03 74.991 125.283 74.8867 125.465 74.697C125.647 74.5074 125.74 74.25 125.722 73.988V73.988Z" fill="#263238"/>
<path fill-rule="evenodd" clip-rule="evenodd" d="M129.16 73.6955V75.3915H128.668V75.0184C128.452 75.3099 128.102 75.47 127.74 75.4424C127.1 75.4424 126.697 75.0989 126.697 74.5944C126.697 74.0898 126.989 73.7676 127.829 73.7676H128.668V73.67C128.668 73.246 128.414 72.9874 127.909 72.9874C127.586 72.9828 127.27 73.089 127.015 73.2884L126.803 72.9068C127.139 72.6573 127.55 72.5288 127.969 72.5422C128.723 72.5464 129.16 72.9196 129.16 73.6955V73.6955ZM128.651 74.5435V74.1492H127.863C127.354 74.1492 127.21 74.3484 127.21 74.5732C127.21 74.7979 127.443 75.0311 127.833 75.0311C128.19 75.0654 128.528 74.8647 128.668 74.535L128.651 74.5435Z" fill="#263238"/>
<path fill-rule="evenodd" clip-rule="evenodd" d="M129.754 75.1158L129.966 74.6918C130.262 74.8829 130.606 74.9845 130.958 74.9844C131.433 74.9844 131.628 74.8402 131.628 74.6028C131.628 73.9668 129.843 74.518 129.843 73.3901C129.843 72.8856 130.297 72.5421 131.022 72.5421C131.382 72.5362 131.737 72.6255 132.052 72.8008L131.832 73.2036C131.588 73.0507 131.305 72.9726 131.017 72.9789C130.568 72.9789 130.352 73.1442 130.352 73.3689C130.352 74.0346 132.141 73.4919 132.141 74.5901C132.141 75.1031 131.675 75.4381 130.92 75.4381C130.508 75.451 130.101 75.3387 129.754 75.1158H129.754Z" fill="#263238"/>
<path fill-rule="evenodd" clip-rule="evenodd" d="M132.425 75.1158L132.637 74.6918C132.933 74.8829 133.277 74.9845 133.629 74.9844C134.104 74.9844 134.299 74.8402 134.299 74.6028C134.299 73.9668 132.514 74.518 132.514 73.3901C132.514 72.8856 132.968 72.5421 133.693 72.5421C134.053 72.5362 134.409 72.6255 134.723 72.8008L134.503 73.2036C134.259 73.0507 133.976 72.9726 133.689 72.9789C133.239 72.9789 133.023 73.1442 133.023 73.3689C133.023 74.0346 134.812 73.4919 134.812 74.5901C134.812 75.1031 134.346 75.4381 133.591 75.4381C133.179 75.451 132.772 75.3387 132.425 75.1158H132.425Z" fill="#263238"/>
<path fill-rule="evenodd" clip-rule="evenodd" d="M139.693 72.5718L138.637 75.3956H138.145L137.331 73.2756L136.504 75.3956H136.012L134.948 72.5718H135.453L136.275 74.819L137.123 72.5718H137.547L138.395 74.8317L139.243 72.5718H139.693Z" fill="#263238"/>
<path fill-rule="evenodd" clip-rule="evenodd" d="M139.854 73.988C139.845 73.3932 140.196 72.8521 140.743 72.6181C141.29 72.3841 141.924 72.5035 142.349 72.9205C142.773 73.3374 142.904 73.9694 142.679 74.5203C142.455 75.0712 141.92 75.4321 141.325 75.4339C140.934 75.4517 140.553 75.306 140.274 75.0317C139.995 74.7574 139.843 74.3792 139.854 73.988H139.854ZM142.27 73.988C142.245 73.4698 141.808 73.0679 141.29 73.0855C140.771 73.103 140.363 73.5335 140.372 74.0523C140.382 74.5711 140.806 74.9861 141.325 74.9844C141.587 74.9912 141.839 74.8867 142.019 74.6967C142.2 74.5067 142.291 74.2491 142.27 73.988V73.988Z" fill="#263238"/>
<path fill-rule="evenodd" clip-rule="evenodd" d="M145.018 72.5463V73.0424H144.899C144.647 73.0278 144.402 73.126 144.23 73.3104C144.058 73.4948 143.977 73.7462 144.009 73.9964L144.009 75.4041H143.509V72.5718H143.996V73.0424C144.217 72.6986 144.611 72.507 145.018 72.5463H145.018Z" fill="#263238"/>
<path fill-rule="evenodd" clip-rule="evenodd" d="M148.287 71.444V75.3999H147.795V74.9504C147.56 75.2693 147.182 75.4505 146.786 75.4338C146.019 75.3922 145.418 74.7582 145.418 73.9901C145.418 73.222 146.019 72.588 146.786 72.5464C147.169 72.5326 147.535 72.7009 147.774 73.0001L147.774 71.444L148.287 71.444ZM147.778 73.988C147.755 73.4667 147.317 73.0608 146.796 73.0768C146.274 73.0929 145.862 73.525 145.871 74.0467C145.88 74.5684 146.307 74.9862 146.828 74.9844C147.091 74.9911 147.343 74.8866 147.524 74.6968C147.705 74.507 147.797 74.2495 147.778 73.988H147.778Z" fill="#263238"/>
<path fill-rule="evenodd" clip-rule="evenodd" d="M150.924 72.6524C150.924 72.3132 150.644 72.08 150.161 72.08C149.793 72.0596 149.438 72.2174 149.207 72.504L148.821 72.2284C149.158 71.8188 149.67 71.5962 150.199 71.6305C150.967 71.6305 151.471 71.9867 151.471 72.5803C151.471 73.4707 150.53 73.5258 150.53 74.2254H149.996C149.987 73.3859 150.924 73.2672 150.924 72.6524V72.6524ZM149.911 75.0904C149.93 74.9143 150.079 74.781 150.257 74.781C150.434 74.781 150.583 74.9143 150.602 75.0904C150.583 75.2665 150.434 75.3997 150.257 75.3997C150.079 75.3997 149.93 75.2665 149.911 75.0904V75.0904Z" fill="#263238"/>
<path fill-rule="evenodd" clip-rule="evenodd" d="M161.575 83.1591C161.575 83.2814 146.574 83.3711 128.079 83.3711C109.584 83.3711 94.583 83.2814 94.583 83.1591C94.583 83.0368 109.58 82.9471 128.079 82.9471C146.578 82.9471 161.575 83.045 161.575 83.1591V83.1591Z" fill="black"/>
<path fill-rule="evenodd" clip-rule="evenodd" d="M147.274 86.7419C147.274 86.8561 138.679 86.9539 128.075 86.9539C117.471 86.9539 108.872 86.8561 108.872 86.7419C108.872 86.6278 117.471 86.5299 128.075 86.5299C138.679 86.5299 147.274 86.5951 147.274 86.7419V86.7419Z" fill="black"/>
<path fill-rule="evenodd" clip-rule="evenodd" d="M141.219 41.234C145.117 37.598 145.562 31.5753 142.24 27.4061C138.919 23.237 132.949 22.3245 128.534 25.3113C124.119 28.298 122.744 34.1787 125.378 38.813L123.301 40.7506L123.801 44.1978L120.574 43.3158L117.975 45.7411L118.493 49.167L115.27 48.2639L113.036 50.3458L113.341 52.4658L111.374 51.9146L110.076 53.1272L109.881 56.3199L114.643 57.5198L130.097 43.1038C133.844 44.7691 138.223 44.0328 141.219 41.234V41.234ZM139.693 28.6794C140.502 29.5457 140.709 30.8141 140.218 31.893C139.727 32.9718 138.634 33.6484 137.449 33.6071C136.265 33.5659 135.222 32.8149 134.807 31.7045C134.392 30.5941 134.687 29.3431 135.554 28.5352C136.737 27.4333 138.589 27.4978 139.693 28.6794V28.6794Z" fill="#263238"/>
<path fill-rule="evenodd" clip-rule="evenodd" d="M139.693 28.6793C139.693 28.6793 139.502 28.5013 139.112 28.2553C138.557 27.9239 137.91 27.7825 137.267 27.8525C135.822 28.0085 134.732 29.2381 134.75 30.6919C134.769 32.1457 135.89 33.347 137.339 33.466C138.788 33.585 140.09 32.5826 140.345 31.1513C140.463 30.516 140.366 29.8597 140.07 29.2857C139.858 28.8617 139.671 28.6921 139.693 28.6751C139.714 28.6581 139.748 28.7133 139.832 28.8023C139.957 28.9307 140.067 29.073 140.159 29.2263C140.504 29.8111 140.633 30.4982 140.524 31.1682C140.396 31.9736 139.947 32.6928 139.28 33.1617C138.613 33.6307 137.784 33.8094 136.983 33.6571C135.671 33.4166 134.672 32.3451 134.524 31.0198C134.428 30.2106 134.664 29.397 135.177 28.7644C135.691 28.1318 136.439 27.734 137.25 27.6617C137.928 27.5992 138.606 27.7762 139.167 28.1621C139.322 28.2617 139.464 28.3798 139.591 28.514C139.693 28.6242 139.718 28.6751 139.693 28.6793V28.6793Z" fill="#263238"/>
<path fill-rule="evenodd" clip-rule="evenodd" d="M141.219 41.2339C141.219 41.2339 141.172 41.2848 141.071 41.3738L140.621 41.7978C140.012 42.294 139.349 42.7206 138.645 43.0698C135.934 44.3686 132.79 44.4136 130.042 43.1928H130.127L114.698 57.6342L114.655 57.6809H114.592L109.83 56.4852L109.733 56.464V56.3622C109.792 55.3658 109.856 54.2762 109.923 53.1695V53.0678L109.957 53.0338L111.285 51.7958L111.331 51.7491H111.399L113.366 52.3003L113.209 52.436C113.112 51.7788 113.01 51.058 112.904 50.316V50.2524L112.951 50.21L115.185 48.1239L115.236 48.0731H115.304L118.526 48.9762L118.37 49.1161C118.213 48.0222 118.043 46.8519 117.873 45.669V45.6011L117.924 45.5587L118.611 44.9143L120.523 43.1335L120.574 43.0826H120.642L123.869 43.9857L123.708 44.1256C123.541 42.9639 123.376 41.8148 123.212 40.6785V40.6149L123.258 40.5683L125.336 38.6306L125.315 38.7832C124.511 37.355 124.056 35.7568 123.988 34.1192C123.948 33.328 124.005 32.5349 124.157 31.7575C124.296 30.9931 124.524 30.2474 124.836 29.5358C126.441 25.8608 130.034 23.4516 134.043 23.3606C138.052 23.2696 141.75 25.5134 143.521 29.1118C144.335 30.7745 144.682 32.6267 144.526 34.4711C144.419 35.846 144.029 37.184 143.381 38.4016C143.318 38.5288 143.254 38.6475 143.19 38.7663L142.983 39.0885C142.843 39.2963 142.728 39.5125 142.593 39.6694C142.317 40.0001 142.105 40.2969 141.897 40.5174L141.389 41.0813L141.223 41.2339C141.223 41.2339 141.27 41.1746 141.372 41.0643L141.829 40.5767C142.029 40.3647 142.253 40.0637 142.504 39.7287C142.631 39.5549 142.741 39.3514 142.877 39.1479C142.945 39.0419 143.012 38.9359 143.08 38.8214L143.267 38.461C144.972 35.1797 144.752 31.2294 142.693 28.1577C140.634 25.086 137.063 23.382 133.38 23.7132C129.697 24.0443 126.488 26.358 125.009 29.7478C124.707 30.4439 124.485 31.1722 124.348 31.9186C124.203 32.6784 124.149 33.4527 124.187 34.2252C124.259 35.8186 124.705 37.3726 125.489 38.762L125.535 38.8468L125.463 38.9147L123.39 40.8523L123.428 40.7421C123.592 41.8728 123.757 43.0232 123.924 44.1935L123.954 44.3843L123.763 44.3334L120.54 43.4303L120.663 43.4006L118.751 45.1814L118.069 45.8131L118.107 45.6986C118.276 46.8816 118.446 48.0561 118.603 49.1458L118.632 49.3408L118.442 49.2899L115.219 48.3826L115.338 48.3529C114.571 49.0737 113.807 49.7818 113.103 50.439L113.146 50.3287C113.248 51.0538 113.349 51.7746 113.447 52.4487L113.472 52.6353L113.29 52.5844L111.327 52.0332L111.441 52.0035L110.14 53.2162L110.178 53.1356C110.11 54.2423 110.042 55.3319 109.983 56.3283L109.894 56.2054L114.655 57.4053L114.549 57.435L130.025 43.0444L130.063 43.0105H130.11C132.819 44.2294 135.924 44.2077 138.616 42.9511C139.317 42.6168 139.982 42.2104 140.6 41.7385L141.062 41.3527L141.219 41.2339Z" fill="#263238"/>
<path fill-rule="evenodd" clip-rule="evenodd" d="M140.875 40.0765C144.772 36.4428 145.217 30.4235 141.898 26.2558C138.579 22.0881 132.613 21.1744 128.199 24.1579C123.785 27.1413 122.409 33.018 125.039 37.6513V37.6513L122.966 39.5847L123.462 43.0361L120.239 42.1287L117.644 44.5582L118.141 48.0053L114.918 47.1022L112.684 49.1883L112.985 51.3083L111.022 50.7613L109.72 51.974L109.525 55.1667L114.286 56.3624L129.741 41.9464C133.491 43.6208 137.879 42.8839 140.875 40.0765H140.875ZM139.366 27.5219C140.175 28.3882 140.382 29.6567 139.891 30.7355C139.4 31.8143 138.307 32.4909 137.123 32.4497C135.938 32.4084 134.895 31.6574 134.48 30.547C134.065 29.4366 134.36 28.1857 135.228 27.3777C135.795 26.8475 136.551 26.5647 137.327 26.5918C138.103 26.6188 138.837 26.9535 139.366 27.5219V27.5219Z" fill="#1A4F8B"/>
<path fill-rule="evenodd" clip-rule="evenodd" d="M139.366 27.5218C139.366 27.5218 139.175 27.3438 138.785 27.0978C138.236 26.7555 137.588 26.6062 136.945 26.6738C135.503 26.8323 134.418 28.0601 134.438 29.5102C134.457 30.9604 135.575 32.1585 137.02 32.2781C138.466 32.3977 139.766 31.3998 140.023 29.9726C140.14 29.3369 140.042 28.6804 139.743 28.107C139.531 27.683 139.349 27.5134 139.366 27.4964C139.383 27.4794 139.421 27.5345 139.51 27.6236C139.633 27.7523 139.741 27.8945 139.832 28.0476C140.178 28.6334 140.308 29.3223 140.197 29.9938C140.068 30.7977 139.62 31.5154 138.954 31.984C138.288 32.4526 137.461 32.6324 136.661 32.4826C135.35 32.2551 134.342 31.1959 134.18 29.875C134.087 29.0663 134.323 28.254 134.837 27.6219C135.35 26.9899 136.096 26.5915 136.907 26.517C137.585 26.4552 138.263 26.6338 138.823 27.0215C138.979 27.1199 139.122 27.2382 139.247 27.3734C139.336 27.4667 139.374 27.5176 139.366 27.5218V27.5218Z" fill="#263238"/>
<path fill-rule="evenodd" clip-rule="evenodd" d="M140.876 40.0765C140.876 40.0765 140.829 40.1274 140.731 40.2164L140.282 40.615C139.672 41.1098 139.009 41.5364 138.306 41.887C135.593 43.1854 132.448 43.2303 129.699 42.0099L129.784 42.01L114.359 56.4514L114.312 56.4938H114.253L109.487 55.2981L109.394 55.2727V55.1752C109.453 54.1787 109.521 53.0891 109.584 51.9824V51.9316L109.618 51.9019L110.92 50.685L110.971 50.6384H111.039L113.002 51.1853L112.845 51.3252C112.752 50.668 112.646 49.9472 112.54 49.2052V49.1416L112.591 49.095L114.821 47.0132L114.872 46.9623L114.944 46.9835L118.166 47.8866L118.005 48.0265L117.509 44.5879V44.52L117.556 44.4734L118.247 43.8332L120.155 42.0524L120.206 42.0015L120.278 42.0227L123.5 42.9258L123.339 43.0657C123.172 41.904 123.007 40.7549 122.843 39.6186V39.5508L122.894 39.5084L124.971 37.5707L124.946 37.7233C124.142 36.295 123.687 34.6969 123.619 33.0593C123.581 32.2681 123.638 31.4753 123.788 30.6976C123.928 29.9334 124.156 29.1878 124.467 28.4759C126.459 23.8432 131.518 21.3395 136.41 22.5646C141.302 23.7897 144.583 28.382 144.157 33.407C144.049 34.7818 143.66 36.1196 143.012 37.3375L142.822 37.7021L142.614 38.0243C142.474 38.2321 142.36 38.4483 142.228 38.6052C141.952 38.9359 141.74 39.2327 141.533 39.4532L141.041 39.9239C140.935 40.0299 140.876 40.0807 140.876 40.0807C140.876 40.0807 140.926 40.0172 141.028 39.9069L141.482 39.4235C141.681 39.2115 141.906 38.9105 142.156 38.5755C142.283 38.406 142.398 38.2024 142.533 37.9947L142.737 37.6724L142.919 37.3078C143.546 36.0969 143.92 34.7712 144.017 33.4112C144.389 28.4948 141.163 24.0262 136.379 22.8324C131.595 21.6386 126.648 24.0672 124.666 28.5819C124.365 29.2781 124.145 30.0065 124.009 30.7527C123.862 31.5122 123.807 32.2868 123.848 33.0593C123.919 34.6523 124.363 36.2064 125.145 37.5961L125.196 37.6809L125.124 37.7488L123.046 39.6864L123.084 39.5762C123.251 40.7069 123.417 41.8559 123.581 43.0233L123.61 43.2184L123.424 43.1632L120.189 42.2559L120.307 42.2262L118.399 44.0112L117.708 44.6515L117.746 44.5412C117.92 45.7242 118.086 46.8944 118.242 47.9884L118.272 48.1834L118.086 48.1283L114.859 47.2252L114.982 47.1955L112.747 49.2773L112.786 49.1713C112.887 49.8964 112.993 50.6129 113.087 51.2701L113.112 51.4609L112.93 51.41L110.967 50.8588L111.081 50.8291L109.784 52.0418L109.822 51.957C109.754 53.0636 109.686 54.1575 109.623 55.1497L109.533 55.0268L114.295 56.2309L114.189 56.2606L129.665 41.87L129.703 41.8361L129.75 41.8573C132.46 43.07 135.562 43.0483 138.255 41.7979C138.958 41.4629 139.624 41.0565 140.244 40.5853L140.702 40.1995L140.876 40.0765Z" fill="#263238"/>
<path fill-rule="evenodd" clip-rule="evenodd" d="M139.938 39.2793C140.442 38.7404 140.901 38.1619 141.312 37.5494C141.777 36.8235 142.13 36.0316 142.359 35.2004C142.673 34.0988 142.772 32.9474 142.652 31.8084C142.513 30.4321 142.052 29.1076 141.308 27.9416C140.45 26.6067 139.253 25.5238 137.839 24.804C137.082 24.4097 136.268 24.135 135.427 23.9899C134.994 23.909 134.556 23.858 134.117 23.8372C133.668 23.8303 133.219 23.853 132.773 23.9051C128.927 24.3461 125.819 27.2442 125.111 31.0495C125.028 31.4906 124.974 31.9368 124.95 32.3851C124.941 32.8256 124.962 33.2661 125.013 33.7037C125.099 34.5534 125.316 35.3845 125.658 36.1672C126.277 37.6283 127.275 38.8975 128.55 39.8432C129.659 40.6691 130.947 41.2212 132.31 41.4544C133.434 41.6536 134.586 41.6349 135.702 41.3993C136.548 41.2259 137.362 40.9272 138.119 40.5132C138.759 40.1479 139.367 39.731 139.938 39.2666C139.938 39.2666 139.909 39.3048 139.837 39.3684L139.519 39.6567C139.348 39.8129 139.165 39.9547 138.972 40.0807C138.717 40.2736 138.447 40.4465 138.166 40.598C137.407 41.0325 136.586 41.3485 135.732 41.535C131.478 42.4852 127.152 40.2657 125.442 36.2562C125.088 35.448 124.862 34.5898 124.772 33.7122C124.65 32.8164 124.678 31.9067 124.852 31.0198C125.575 27.1038 128.773 24.1207 132.73 23.6719C133.638 23.555 134.559 23.5865 135.457 23.7652C136.32 23.9203 137.155 24.2063 137.933 24.6132C139.381 25.356 140.603 26.4731 141.473 27.8483C142.863 30.0572 143.236 32.7565 142.499 35.2598C142.255 36.1009 141.881 36.899 141.393 37.6257C141.225 37.8954 141.035 38.1506 140.824 38.3889C140.683 38.5738 140.527 38.7468 140.358 38.9062L140.049 39.203C139.981 39.2496 139.943 39.2836 139.938 39.2793V39.2793Z" fill="#263238"/>
<path fill-rule="evenodd" clip-rule="evenodd" d="M139.527 32.0332C139.506 32.0332 139.739 31.8127 140.023 31.359C140.423 30.7115 140.593 29.9484 140.507 29.1924C140.387 28.0668 139.701 27.0802 138.688 26.5763C138.105 26.2781 137.446 26.1614 136.797 26.2414C135.762 26.3661 134.847 26.969 134.323 27.8697C133.8 28.7705 133.73 29.8646 134.134 30.8248C134.367 31.3698 134.738 31.8446 135.211 32.2028C135.627 32.5127 136.108 32.723 136.618 32.8176C137.367 32.9557 138.141 32.8377 138.815 32.4826C139.29 32.2325 139.506 32.012 139.527 32.0332C139.548 32.0544 139.48 32.0968 139.374 32.1943C139.22 32.3411 139.048 32.4679 138.861 32.5717C137.675 33.2587 136.195 33.1805 135.088 32.3724C133.981 31.5718 133.436 30.2041 133.689 28.8617C133.969 27.3314 135.221 26.1665 136.767 25.9954C137.466 25.911 138.173 26.0396 138.798 26.3643C139.361 26.658 139.836 27.0973 140.172 27.6363C140.895 28.7985 140.87 30.2769 140.108 31.4142C139.987 31.5918 139.844 31.7541 139.684 31.8975C139.591 31.995 139.531 32.0417 139.527 32.0332V32.0332Z" fill="#263238"/>
<path fill-rule="evenodd" clip-rule="evenodd" d="M113.031 55.7773C112.985 55.7264 116.462 52.3853 120.803 48.353C125.145 44.3208 128.703 41.0645 128.749 41.1153C128.796 41.1662 125.319 44.5073 120.977 48.5396C116.635 52.5718 113.078 55.8281 113.031 55.7773V55.7773Z" fill="#263238"/>
<path fill-rule="evenodd" clip-rule="evenodd" d="M114.948 35.544L115.092 35.2302L115.279 35.5185C115.431 35.7489 115.646 35.9312 115.898 36.0443L116.216 36.1842L115.927 36.375C115.695 36.5263 115.511 36.7412 115.397 36.9941L115.257 37.3078L115.067 37.0195C114.915 36.7885 114.7 36.606 114.448 36.4937L114.134 36.3538L114.422 36.163C114.654 36.0128 114.837 35.7975 114.948 35.544V35.544Z" fill="#1A4F8B"/>
<path fill-rule="evenodd" clip-rule="evenodd" d="M105.489 33.1865L105.569 33.0042L105.679 33.1695C105.767 33.3046 105.892 33.4109 106.04 33.4748L106.222 33.5596L106.052 33.6698C105.919 33.7575 105.813 33.8809 105.747 34.026L105.667 34.2125L105.556 34.0429C105.469 33.9078 105.344 33.8016 105.196 33.7377L105.014 33.6529L105.179 33.5469C105.313 33.4575 105.42 33.3328 105.489 33.1865V33.1865Z" fill="#1A4F8B"/>
<path fill-rule="evenodd" clip-rule="evenodd" d="M135.283 49.3112L135.364 49.1289L135.474 49.2985C135.565 49.4306 135.689 49.536 135.834 49.6038L136.017 49.6843L135.851 49.7946C135.716 49.8819 135.61 50.0073 135.546 50.155L135.461 50.3373L135.351 50.1719C135.264 50.0372 135.14 49.9298 134.995 49.8624L134.808 49.7819L134.978 49.6716C135.113 49.5843 135.219 49.4589 135.283 49.3112V49.3112Z" fill="#1A4F8B"/>
<path fill-rule="evenodd" clip-rule="evenodd" d="M149.869 41.0433L150.009 40.7295L150.199 41.0178C150.351 41.2489 150.566 41.4315 150.818 41.5436L151.132 41.6835L150.844 41.8743C150.613 42.0256 150.43 42.2406 150.318 42.4933L150.174 42.8071L149.987 42.5188C149.834 42.2895 149.619 42.1075 149.368 41.993L149.05 41.8531L149.339 41.6623C149.571 41.511 149.755 41.2961 149.869 41.0433V41.0433Z" fill="#1A4F8B"/>
<path fill-rule="evenodd" clip-rule="evenodd" d="M147.973 29.4594L148.211 28.9294L148.529 29.417C148.784 29.8047 149.145 30.112 149.568 30.3032L150.098 30.5364L149.61 30.8544C149.223 31.1124 148.916 31.4738 148.724 31.8974L148.486 32.4274L148.168 31.9398C147.913 31.5522 147.553 31.2449 147.13 31.0537L146.6 30.8162L147.087 30.4982C147.475 30.2427 147.782 29.8825 147.973 29.4594V29.4594Z" fill="#1A4F8B"/>
<path fill-rule="evenodd" clip-rule="evenodd" d="M112.01 25.8894L112.247 25.3594L112.565 25.8427C112.819 26.2315 113.18 26.5391 113.604 26.7289L114.134 26.9663L113.651 27.2843C113.261 27.5373 112.953 27.8982 112.764 28.3231L112.527 28.8531L112.209 28.3698C111.954 27.9799 111.592 27.6721 111.166 27.4836L110.64 27.2462L111.124 26.9282C111.512 26.6739 111.82 26.3134 112.01 25.8894V25.8894Z" fill="#1A4F8B"/>
<path fill-rule="evenodd" clip-rule="evenodd" d="M157.025 106.623C157.025 106.623 157.161 106.623 157.424 106.589C157.589 106.587 157.754 106.568 157.916 106.534L158.225 106.483L158.577 106.39C159.193 106.231 159.778 105.97 160.307 105.618C161.471 104.857 162.339 103.72 162.766 102.396C162.938 101.855 163.032 101.293 163.046 100.725C163.046 100.429 163.046 100.119 163.046 99.8139L163.021 99.3475C163.021 99.1906 162.974 99.0337 162.949 98.8768C162.826 98.2214 162.598 97.59 162.275 97.007C161.541 95.7094 160.352 94.7303 158.938 94.2595C158.17 94.0144 157.364 93.9081 156.559 93.9457H153.99L99.1282 93.9796C97.8091 93.9807 96.5273 94.4174 95.4819 95.2219C94.9713 95.6205 94.5251 96.0953 94.159 96.6296C93.8029 97.1657 93.5352 97.7555 93.3661 98.3765C93.2825 98.6854 93.2216 99 93.1838 99.3178C93.1838 99.6358 93.1414 99.9538 93.1499 100.28C93.1317 100.916 93.2088 101.55 93.3788 102.163C93.5535 102.764 93.818 103.336 94.1632 103.859C94.5191 104.372 94.9476 104.83 95.4352 105.22C95.9206 105.605 96.4646 105.91 97.0464 106.123C97.3325 106.23 97.6258 106.316 97.9241 106.382C98.2252 106.438 98.5298 106.473 98.8357 106.488C100.061 106.517 101.299 106.488 102.512 106.488H109.639L134.303 106.509L150.933 106.547L155.452 106.568H156.631H157.03C157.03 106.568 156.894 106.568 156.631 106.568H155.452L150.933 106.589L134.303 106.623L109.639 106.649H102.508C101.291 106.649 100.07 106.649 98.8187 106.649C98.5029 106.634 98.1885 106.599 97.8774 106.543C97.5676 106.474 97.263 106.383 96.9658 106.271C96.3637 106.052 95.801 105.737 95.2995 105.339C94.2713 104.534 93.5282 103.421 93.1795 102.163C93.0055 101.531 92.9255 100.876 92.9421 100.221C92.9421 99.8986 92.9421 99.5637 92.976 99.2372C93.0163 98.908 93.08 98.5821 93.1668 98.262C93.3432 97.6174 93.6208 97.0048 93.9894 96.4473C94.3679 95.892 94.8315 95.3998 95.3631 94.9887C96.4478 94.16 97.7759 93.7129 99.141 93.7167L154.002 93.7464H156.572C157.393 93.714 158.214 93.8244 158.997 94.0728C160.437 94.5626 161.644 95.5667 162.389 96.8925C162.719 97.4886 162.949 98.1345 163.072 98.8047L163.144 99.2838C163.144 99.4449 163.144 99.6018 163.144 99.7587C163.144 100.072 163.144 100.374 163.144 100.679C163.125 101.255 163.027 101.826 162.851 102.375C162.685 102.87 162.459 103.343 162.177 103.782C161.705 104.523 161.077 105.151 160.337 105.623C159.798 105.972 159.205 106.23 158.582 106.386L158.225 106.471L157.912 106.517C157.749 106.547 157.585 106.562 157.42 106.564L157.025 106.623Z" fill="#263238"/>
<path fill-rule="evenodd" clip-rule="evenodd" d="M93.0398 115.724V115.434C93.0398 113.754 93.6338 112.32 94.8219 111.132C96.0099 109.944 97.444 109.35 99.1242 109.35H157.026C158.706 109.35 160.14 109.944 161.328 111.132C162.516 112.32 163.11 113.754 163.11 115.434L163.11 115.724L163.11 116.015C163.11 117.695 162.516 119.129 161.328 120.317C160.14 121.505 158.706 122.099 157.026 122.099H99.1242C97.444 122.099 96.0099 121.505 94.8219 120.317C93.6338 119.129 93.0398 117.695 93.0398 116.015V115.724Z" fill="#1A4F8B"/>
<path fill-rule="evenodd" clip-rule="evenodd" d="M107.108 102.79C107.1 102.665 107.1 102.539 107.108 102.413C107.108 102.15 107.108 101.807 107.087 101.383C107.087 100.475 107.062 99.2202 107.04 97.7065L107.129 97.7913L99.5526 97.8167L99.6628 97.7065V97.7065V99.0378C99.6628 99.4618 99.6628 99.9113 99.6628 100.335C99.6628 101.183 99.6628 102.006 99.6628 102.782L99.5611 102.68L104.993 102.731L106.561 102.756H106.985H107.138C106.961 102.777 106.782 102.785 106.604 102.782L105.056 102.807L99.5441 102.858H99.4126V102.756C99.4126 101.98 99.4126 101.162 99.4126 100.31C99.4126 99.8858 99.4126 99.4618 99.4126 99.0124V97.715V97.715C99.3151 97.8125 99.5483 97.5793 99.5229 97.6005L107.1 97.6259H107.189V97.715C107.168 99.2541 107.151 100.526 107.142 101.446C107.142 101.87 107.142 102.201 107.117 102.46C107.121 102.57 107.119 102.68 107.108 102.79V102.79Z" fill="#263238"/>
<path fill-rule="evenodd" clip-rule="evenodd" d="M107.108 97.7065C106.78 98.0712 106.426 98.4113 106.048 98.7241C105.378 99.3347 104.437 100.162 103.394 101.069H103.228V101.069V101.069L103.203 101.048L103.152 101.005L103.055 100.92L102.864 100.755L102.491 100.429L101.783 99.8053L100.595 98.7453C100.218 98.4325 99.8634 98.0924 99.5354 97.7277C99.9407 97.99 100.325 98.2834 100.684 98.6054L101.901 99.6315L102.618 100.242L102.995 100.564L103.19 100.734L103.284 100.819L103.334 100.857L103.36 100.878V100.878H103.228C104.276 99.9749 105.23 99.1821 105.929 98.5842C106.298 98.261 106.693 97.9675 107.108 97.7065H107.108Z" fill="#263238"/>
<path fill-rule="evenodd" clip-rule="evenodd" d="M102.266 100.073C101.9 100.6 101.473 101.082 100.994 101.51C100.562 101.987 100.077 102.414 99.5483 102.782C99.9173 102.257 100.344 101.775 100.82 101.345C101.254 100.869 101.739 100.442 102.266 100.073V100.073Z" fill="#263238"/>
<path fill-rule="evenodd" clip-rule="evenodd" d="M107.108 102.79C106.603 102.39 106.146 101.931 105.747 101.425C105.294 100.968 104.893 100.461 104.551 99.9155C105.055 100.318 105.512 100.776 105.912 101.281C106.367 101.737 106.768 102.243 107.108 102.79H107.108Z" fill="#263238"/>
<path fill-rule="evenodd" clip-rule="evenodd" d="M111.683 101.264V101.434H109.923V98.8895H111.619V99.0591H110.101V100.064H111.458V100.229H110.101V101.272L111.683 101.264Z" fill="#263238"/>
<path fill-rule="evenodd" clip-rule="evenodd" d="M115.427 100.323V101.434H115.245V100.335C115.245 99.9114 115.02 99.6782 114.651 99.6782C114.456 99.6696 114.267 99.7468 114.133 99.8894C113.999 100.032 113.935 100.226 113.956 100.42V101.434H113.774V100.335C113.774 99.9114 113.549 99.6782 113.18 99.6782C112.985 99.6696 112.795 99.7468 112.662 99.8894C112.528 100.032 112.463 100.226 112.485 100.42V101.434H112.302V99.5298H112.476V99.9538C112.61 99.6771 112.899 99.5094 113.205 99.5298C113.515 99.504 113.802 99.6931 113.901 99.9877C114.04 99.6934 114.343 99.5124 114.668 99.5298C114.88 99.5145 115.087 99.5944 115.234 99.7477C115.381 99.9011 115.452 100.112 115.427 100.323V100.323Z" fill="#263238"/>
<path fill-rule="evenodd" clip-rule="evenodd" d="M117.547 100.225V101.433H117.373V101.094C117.228 101.331 116.963 101.467 116.686 101.446C116.262 101.446 116.004 101.23 116.004 100.903C116.004 100.577 116.186 100.373 116.712 100.373H117.365V100.221C117.381 100.069 117.326 99.9178 117.215 99.8117C117.105 99.7056 116.952 99.6563 116.801 99.6781C116.56 99.6757 116.327 99.76 116.144 99.9155L116.055 99.7841C116.268 99.6075 116.537 99.5128 116.814 99.517C117.011 99.4883 117.21 99.5525 117.354 99.6911C117.497 99.8296 117.569 100.027 117.547 100.225H117.547ZM117.365 100.87V100.513H116.716C116.322 100.513 116.186 100.679 116.186 100.895C116.186 101.111 116.377 101.298 116.712 101.298C117 101.315 117.266 101.141 117.365 100.87H117.365Z" fill="#263238"/>
<path fill-rule="evenodd" clip-rule="evenodd" d="M118.238 98.987C118.238 98.9308 118.26 98.8769 118.3 98.8371C118.34 98.7974 118.394 98.775 118.45 98.775C118.567 98.775 118.662 98.8699 118.662 98.987C118.662 99.1041 118.567 99.199 118.45 99.199C118.333 99.199 118.238 99.1041 118.238 98.987V98.987ZM118.293 99.5298H118.717V101.434H118.329L118.293 99.5298Z" fill="#263238"/>
<path fill-rule="evenodd" clip-rule="evenodd" d="M119.243 98.7284H119.667V101.434H119.243V98.7284Z" fill="#263238"/>
<path fill-rule="evenodd" clip-rule="evenodd" d="M114.113 117.435L113.426 116.473C113.333 116.479 113.239 116.479 113.146 116.473H112.323V117.414H112.133V114.548H113.163C113.884 114.548 114.32 114.908 114.32 115.519C114.34 115.941 114.057 116.319 113.646 116.418L114.367 117.423L114.113 117.435ZM113.146 116.312C113.761 116.312 114.091 116.023 114.091 115.532C114.091 115.04 113.761 114.747 113.146 114.747H112.323V116.312H113.146Z" fill="white"/>
<path fill-rule="evenodd" clip-rule="evenodd" d="M116.818 116.413H114.973C114.973 116.649 115.07 116.874 115.242 117.035C115.414 117.196 115.646 117.278 115.881 117.261C116.143 117.271 116.395 117.162 116.568 116.965L116.686 117.1C116.483 117.333 116.185 117.46 115.877 117.448C115.582 117.462 115.295 117.353 115.086 117.146C114.876 116.938 114.763 116.653 114.774 116.358C114.75 115.977 114.939 115.613 115.266 115.415C115.593 115.217 116.003 115.217 116.33 115.415C116.657 115.613 116.847 115.977 116.822 116.358C116.822 116.358 116.818 116.392 116.818 116.413V116.413ZM114.978 116.252H116.623C116.623 115.798 116.254 115.43 115.8 115.43C115.346 115.43 114.978 115.798 114.978 116.252V116.252Z" fill="white"/>
<path fill-rule="evenodd" clip-rule="evenodd" d="M117.144 117.177L117.237 117.011C117.459 117.18 117.73 117.271 118.009 117.27C118.463 117.27 118.645 117.113 118.645 116.867C118.645 116.244 117.22 116.706 117.22 115.862C117.22 115.54 117.492 115.277 118.034 115.277C118.295 115.272 118.552 115.345 118.772 115.485L118.675 115.65C118.485 115.52 118.26 115.451 118.03 115.455C117.606 115.455 117.428 115.629 117.428 115.858C117.428 116.502 118.849 116.049 118.849 116.867C118.849 117.215 118.547 117.452 118.001 117.452C117.692 117.462 117.389 117.364 117.144 117.177V117.177Z" fill="white"/>
<path fill-rule="evenodd" clip-rule="evenodd" d="M121.236 116.413H119.391C119.391 116.649 119.488 116.874 119.66 117.035C119.832 117.196 120.064 117.278 120.299 117.261C120.561 117.271 120.813 117.162 120.986 116.965L121.104 117.1C120.9 117.332 120.603 117.459 120.294 117.448C120 117.462 119.712 117.353 119.502 117.146C119.292 116.939 119.178 116.653 119.188 116.358C119.171 116.075 119.273 115.798 119.468 115.593C119.663 115.387 119.935 115.271 120.218 115.273C120.5 115.27 120.77 115.384 120.964 115.589C121.158 115.793 121.258 116.069 121.24 116.35C121.24 116.35 121.236 116.392 121.236 116.413V116.413ZM119.395 116.252H121.036C121.005 115.822 120.647 115.489 120.216 115.489C119.785 115.489 119.426 115.822 119.395 116.252V116.252Z" fill="white"/>
<path fill-rule="evenodd" clip-rule="evenodd" d="M122.94 117.3C122.821 117.399 122.671 117.453 122.516 117.452C122.357 117.469 122.199 117.412 122.086 117.298C121.973 117.185 121.918 117.026 121.935 116.867V115.468H121.541V115.29H121.935V114.823H122.139V115.29H122.821V115.468H122.139V116.85C122.139 117.126 122.275 117.274 122.537 117.274C122.66 117.278 122.779 117.235 122.872 117.156L122.94 117.3Z" fill="white"/>
<path fill-rule="evenodd" clip-rule="evenodd" d="M126.824 115.532C126.824 116.134 126.4 116.494 125.667 116.494H124.853V117.435H124.641V114.548H125.675C126.388 114.548 126.824 114.921 126.824 115.532V115.532ZM126.612 115.532C126.612 115.031 126.282 114.747 125.667 114.747H124.853V116.307H125.675C126.282 116.307 126.612 116.023 126.612 115.532V115.532Z" fill="white"/>
<path fill-rule="evenodd" clip-rule="evenodd" d="M128.995 116.074V117.435H128.796V117.054C128.635 117.323 128.336 117.477 128.024 117.452C127.545 117.452 127.252 117.206 127.252 116.842C127.252 116.477 127.456 116.24 128.054 116.24H128.787V116.07C128.806 115.898 128.744 115.727 128.62 115.607C128.496 115.487 128.323 115.431 128.151 115.455C127.879 115.452 127.615 115.549 127.409 115.727L127.308 115.578C127.547 115.382 127.846 115.276 128.156 115.277C128.38 115.242 128.608 115.312 128.772 115.468C128.937 115.625 129.019 115.849 128.995 116.074V116.074ZM128.787 116.803V116.401H128.058C127.613 116.401 127.456 116.587 127.456 116.825C127.456 117.062 127.672 117.274 128.054 117.274C128.375 117.297 128.674 117.105 128.787 116.803H128.787Z" fill="white"/>
<path fill-rule="evenodd" clip-rule="evenodd" d="M129.517 117.177L129.61 117.011C129.831 117.182 130.103 117.273 130.382 117.27C130.835 117.27 131.013 117.113 131.013 116.867C131.013 116.244 129.593 116.706 129.593 115.862C129.593 115.54 129.864 115.277 130.407 115.277C130.667 115.272 130.922 115.344 131.141 115.485L131.047 115.65C130.858 115.52 130.633 115.452 130.403 115.455C129.979 115.455 129.796 115.629 129.796 115.858C129.796 116.503 131.221 116.049 131.221 116.867C131.221 117.215 130.92 117.452 130.373 117.452C130.064 117.463 129.761 117.365 129.517 117.177V117.177Z" fill="white"/>
<path fill-rule="evenodd" clip-rule="evenodd" d="M131.488 117.177L131.581 117.011C131.803 117.18 132.074 117.271 132.353 117.27C132.807 117.27 132.989 117.113 132.989 116.867C132.989 116.244 131.564 116.706 131.564 115.862C131.564 115.54 131.836 115.277 132.378 115.277C132.639 115.272 132.896 115.345 133.116 115.485L133.019 115.65C132.829 115.52 132.604 115.451 132.374 115.455C131.95 115.455 131.772 115.629 131.772 115.858C131.772 116.502 133.193 116.049 133.193 116.867C133.193 117.215 132.891 117.452 132.345 117.452C132.036 117.462 131.733 117.364 131.488 117.177V117.177Z" fill="white"/>
<path fill-rule="evenodd" clip-rule="evenodd" d="M136.792 115.29L135.978 117.435H135.783L135.062 115.574L134.333 117.435H134.147L133.333 115.29H133.528L134.244 117.206L134.978 115.29H135.151L135.881 117.202L136.602 115.29H136.792Z" fill="white"/>
<path fill-rule="evenodd" clip-rule="evenodd" d="M136.975 116.363C136.984 115.772 137.469 115.3 138.06 115.307C138.651 115.314 139.125 115.797 139.12 116.388C139.115 116.979 138.634 117.454 138.043 117.452C137.753 117.461 137.473 117.348 137.27 117.141C137.068 116.934 136.96 116.652 136.975 116.363V116.363ZM138.908 116.363C138.878 115.903 138.486 115.551 138.026 115.57C137.565 115.59 137.205 115.974 137.214 116.435C137.223 116.896 137.599 117.265 138.06 117.266C138.295 117.266 138.519 117.169 138.68 116.998C138.841 116.827 138.923 116.597 138.908 116.363V116.363Z" fill="white"/>
<path fill-rule="evenodd" clip-rule="evenodd" d="M140.769 115.277V115.476H140.719C140.244 115.476 139.96 115.794 139.96 116.324V117.439H139.756V115.294H139.951V115.765C140.09 115.443 140.42 115.246 140.769 115.277H140.769Z" fill="white"/>
<path fill-rule="evenodd" clip-rule="evenodd" d="M143.22 114.387V117.435H143.021V116.931C142.854 117.26 142.512 117.463 142.143 117.452C141.569 117.416 141.122 116.94 141.122 116.365C141.122 115.789 141.569 115.313 142.143 115.277C142.508 115.268 142.847 115.467 143.017 115.79V114.387H143.22ZM143.017 116.363C142.987 115.903 142.595 115.551 142.134 115.57C141.674 115.59 141.313 115.974 141.323 116.435C141.332 116.896 141.708 117.265 142.169 117.266C142.403 117.266 142.628 117.169 142.789 116.998C142.949 116.827 143.032 116.597 143.017 116.363V116.363Z" fill="white"/>
<path fill-rule="evenodd" clip-rule="evenodd" d="M170.577 6.98751C170.577 7.10167 150.975 7.19951 126.799 7.19951C102.622 7.19951 83.0205 7.10167 83.0205 6.98751C83.0205 6.87336 102.618 6.77551 126.799 6.77551C150.979 6.77551 170.577 6.87336 170.577 6.98751V6.98751Z" fill="#263238"/>
<path fill-rule="evenodd" clip-rule="evenodd" d="M87.9644 3.40893C87.9621 3.99612 87.4846 4.47048 86.8974 4.46893C86.3102 4.46738 85.8352 3.99051 85.8359 3.4033C85.8367 2.81609 86.3129 2.34047 86.9001 2.34045C87.1831 2.34044 87.4545 2.45315 87.6542 2.65365C87.8539 2.85415 87.9655 3.12594 87.9644 3.40893H87.9644Z" fill="#263238"/>
<path fill-rule="evenodd" clip-rule="evenodd" d="M91.0428 3.40893C91.0405 3.99612 90.5629 4.47048 89.9757 4.46893C89.3885 4.46738 88.9135 3.99051 88.9143 3.4033C88.9151 2.81609 89.3913 2.34047 89.9785 2.34045C90.2615 2.34044 90.5329 2.45315 90.7326 2.65365C90.9323 2.85415 91.0439 3.12594 91.0428 3.40893V3.40893Z" fill="#263238"/>
<path fill-rule="evenodd" clip-rule="evenodd" d="M94.1041 3.40889C94.1023 3.84011 93.8405 4.22764 93.4412 4.39024C93.0418 4.55285 92.5838 4.45839 92.2813 4.15105C91.9789 3.84371 91.8918 3.38423 92.0607 2.98751C92.2297 2.59079 92.6214 2.33525 93.0526 2.34041C93.637 2.34739 94.1065 2.8244 94.1041 3.40889V3.40889Z" fill="#263238"/>
<path fill-rule="evenodd" clip-rule="evenodd" d="M170.734 132.992C170.734 132.084 170.691 78.3213 170.632 0.118715L170.734 0.220475H83.0546V0.220475L83.1648 0.110236C83.1648 50.2525 83.1648 96.4812 83.1394 132.983L83.0546 132.899L170.742 132.983L83.0546 133.072H82.9655V132.983C82.9655 96.4812 82.9655 50.2525 82.9443 0.110239V0H83.0631H170.742H170.844V0.101761C170.776 78.3213 170.734 132.089 170.734 132.992V132.992Z" fill="#263238"/>
<path fill-rule="evenodd" clip-rule="evenodd" d="M169.131 168.82C169.111 168.76 169.087 168.702 169.059 168.646C169 168.523 168.923 168.362 168.826 168.15C168.542 167.508 168.313 166.843 168.143 166.161C167.596 163.63 167.614 161.01 168.198 158.487C168.563 156.738 169.039 155.015 169.623 153.327C170.225 151.499 170.929 149.557 171.497 147.459C172.145 145.267 172.458 142.99 172.426 140.704C172.336 138.317 171.633 135.934 170.852 133.56C170.072 131.186 169.275 128.862 169.034 126.526C168.763 124.281 169.208 122.007 170.306 120.03C171.336 118.135 172.629 116.511 173.6 114.832C174.504 113.274 175.171 111.591 175.58 109.837C176.162 107.293 176.204 104.656 175.703 102.095C175.525 101.159 175.255 100.243 174.897 99.3601C174.908 99.4221 174.923 99.4831 174.944 99.5424C174.986 99.6739 175.037 99.8477 175.109 100.068C175.311 100.74 175.478 101.422 175.61 102.112C176.072 104.659 176.004 107.275 175.41 109.795C174.997 111.53 174.327 113.193 173.422 114.73C172.455 116.388 171.158 118.003 170.106 119.92C168.973 121.934 168.508 124.256 168.779 126.551C169.021 128.926 169.826 131.266 170.602 133.636C171.378 136.006 172.078 138.368 172.167 140.713C172.202 142.973 171.897 145.225 171.264 147.395C170.7 149.485 169.992 151.427 169.411 153.263C168.831 154.961 168.364 156.694 168.012 158.453C167.359 161.684 167.545 164.414 168.033 166.187C168.216 166.869 168.46 167.533 168.762 168.171L169.021 168.659C169.051 168.716 169.088 168.77 169.131 168.82V168.82Z" fill="#263238"/>
<path fill-rule="evenodd" clip-rule="evenodd" d="M172.303 116.473C172.303 116.473 174.27 110.181 170.738 106.496C170.682 106.435 170.596 106.411 170.517 106.434C170.438 106.458 170.379 106.525 170.365 106.606C170.178 107.645 169.941 110.808 172.303 116.473V116.473Z" fill="#1A4F8B"/>
<path fill-rule="evenodd" clip-rule="evenodd" d="M171.124 108.612C171.127 109.003 171.171 109.392 171.255 109.774C171.382 110.575 171.535 111.512 171.705 112.551C171.874 113.59 172.018 114.527 172.129 115.324C172.16 115.713 172.229 116.098 172.336 116.473C172.371 116.083 172.358 115.69 172.298 115.303C172.235 114.586 172.107 113.607 171.929 112.508C171.751 111.41 171.565 110.448 171.408 109.744C171.354 109.357 171.259 108.978 171.124 108.612V108.612Z" fill="#263238"/>
<path fill-rule="evenodd" clip-rule="evenodd" d="M169.992 131.309C169.992 131.309 168.788 124.83 163.946 123.223C163.868 123.198 163.783 123.217 163.724 123.274C163.665 123.331 163.643 123.416 163.666 123.494C163.984 124.499 165.256 127.408 169.992 131.309V131.309Z" fill="#1A4F8B"/>
<path fill-rule="evenodd" clip-rule="evenodd" d="M165.264 124.898C165.451 125.24 165.671 125.562 165.921 125.86L167.617 128.103C168.249 128.951 168.817 129.706 169.313 130.35C169.527 130.677 169.768 130.985 170.034 131.27C169.882 130.91 169.688 130.569 169.458 130.253C169.063 129.647 168.487 128.832 167.821 127.955C167.155 127.077 166.549 126.305 166.07 125.754C165.833 125.44 165.563 125.153 165.264 124.898V124.898Z" fill="#263238"/>
<path fill-rule="evenodd" clip-rule="evenodd" d="M171.298 147.569C171.298 147.569 172.031 141.018 167.863 138.076C167.796 138.028 167.709 138.022 167.636 138.059C167.563 138.097 167.516 138.172 167.516 138.254C167.528 139.309 167.901 142.46 171.298 147.569V147.569Z" fill="#1A4F8B"/>
<path fill-rule="evenodd" clip-rule="evenodd" d="M168.639 140.06C168.716 140.443 168.834 140.817 168.991 141.175C169.271 141.934 169.597 142.829 169.958 143.812C170.318 144.796 170.645 145.691 170.92 146.454C171.027 146.828 171.169 147.192 171.344 147.539C171.305 147.15 171.218 146.767 171.086 146.399C170.886 145.708 170.573 144.758 170.191 143.728C169.809 142.697 169.436 141.773 169.152 141.111C169.02 140.743 168.848 140.391 168.639 140.06V140.06Z" fill="#263238"/>
<path fill-rule="evenodd" clip-rule="evenodd" d="M167.651 163.927C167.651 163.927 168.147 157.351 163.878 154.561C163.81 154.513 163.721 154.509 163.648 154.55C163.576 154.591 163.533 154.669 163.538 154.752C163.589 155.803 164.073 158.941 167.651 163.927V163.927Z" fill="#1A4F8B"/>
<path fill-rule="evenodd" clip-rule="evenodd" d="M164.709 156.524C164.805 156.903 164.937 157.272 165.103 157.626C165.408 158.377 165.769 159.254 166.167 160.225C166.566 161.196 166.918 162.082 167.223 162.829C167.34 163.201 167.495 163.561 167.685 163.901C167.629 163.514 167.528 163.134 167.384 162.769C167.159 162.087 166.812 161.15 166.392 160.132C165.972 159.114 165.569 158.207 165.26 157.554C165.117 157.19 164.932 156.844 164.709 156.524V156.524Z" fill="#263238"/>
<path fill-rule="evenodd" clip-rule="evenodd" d="M175.131 110.944C175.131 110.944 180.973 107.891 181.088 102.79C181.089 102.708 181.045 102.632 180.973 102.593C180.9 102.554 180.813 102.558 180.744 102.604C179.875 103.206 177.471 105.271 175.131 110.944V110.944Z" fill="#1A4F8B"/>
<path fill-rule="evenodd" clip-rule="evenodd" d="M179.875 104.546C179.599 104.822 179.354 105.127 179.146 105.457L177.497 107.734C176.882 108.582 176.322 109.354 175.843 110.007C175.596 110.308 175.373 110.628 175.177 110.965C175.479 110.716 175.75 110.431 175.983 110.117C176.445 109.562 177.056 108.773 177.679 107.878C178.302 106.984 178.883 106.182 179.273 105.555C179.509 105.24 179.71 104.902 179.875 104.546L179.875 104.546Z" fill="#263238"/>
<path fill-rule="evenodd" clip-rule="evenodd" d="M168.855 124.457C168.855 124.457 174.885 121.756 175.309 116.668C175.318 116.585 175.28 116.504 175.209 116.46C175.138 116.415 175.048 116.415 174.978 116.46C174.062 117.02 171.535 118.936 168.855 124.457V124.457Z" fill="#1A4F8B"/>
<path fill-rule="evenodd" clip-rule="evenodd" d="M173.977 118.364C173.689 118.619 173.428 118.903 173.197 119.212L171.412 121.383L169.627 123.554C169.358 123.836 169.115 124.143 168.902 124.469C169.215 124.237 169.5 123.968 169.75 123.668C170.246 123.142 170.903 122.396 171.599 121.548C172.294 120.7 172.905 119.907 173.329 119.326C173.582 119.032 173.8 118.709 173.977 118.364H173.977Z" fill="#263238"/>
<path fill-rule="evenodd" clip-rule="evenodd" d="M172.315 139.526C172.315 139.526 176.449 134.391 174.512 129.672C174.481 129.595 174.41 129.542 174.328 129.534C174.246 129.526 174.166 129.564 174.122 129.634C173.566 130.533 172.192 133.395 172.315 139.526V139.526Z" fill="#1A4F8B"/>
<path fill-rule="evenodd" clip-rule="evenodd" d="M174.1 131.762C173.962 132.127 173.861 132.505 173.799 132.89C173.625 133.683 173.426 134.611 173.201 135.638L172.599 138.381C172.489 138.755 172.412 139.138 172.37 139.526C172.548 139.178 172.681 138.809 172.765 138.428C172.968 137.732 173.214 136.765 173.443 135.693C173.672 134.62 173.867 133.636 173.969 132.924C174.056 132.543 174.1 132.153 174.1 131.762V131.762Z" fill="#263238"/>
<path fill-rule="evenodd" clip-rule="evenodd" d="M168.224 157.262C168.224 157.262 174.194 154.472 174.533 149.379C174.539 149.298 174.499 149.22 174.429 149.178C174.359 149.136 174.271 149.137 174.202 149.18C173.307 149.74 170.814 151.699 168.224 157.262V157.262Z" fill="#1A4F8B"/>
<path fill-rule="evenodd" clip-rule="evenodd" d="M173.244 151.08C172.96 151.346 172.703 151.64 172.477 151.957L170.734 154.162C170.077 154.985 169.487 155.727 168.979 156.359C168.716 156.646 168.481 156.957 168.275 157.287C168.589 157.051 168.874 156.778 169.123 156.473C169.61 155.939 170.255 155.18 170.933 154.315C171.612 153.45 172.205 152.653 172.629 152.063C172.869 151.759 173.076 151.429 173.244 151.08V151.08Z" fill="#263238"/>
<path fill-rule="evenodd" clip-rule="evenodd" d="M156.331 131.347C156.331 131.347 156.331 131.398 156.331 131.491C156.331 131.584 156.331 131.745 156.331 131.915C156.352 132.313 156.373 132.848 156.403 133.513C156.479 134.921 156.589 136.88 156.716 139.225V139.225V139.225C157.14 141.607 158.357 144.253 159.99 146.818C161.185 148.709 162.44 150.431 163.526 152.029C164.509 153.426 165.393 154.889 166.172 156.409C166.685 157.439 167.101 158.515 167.414 159.623C167.52 160.018 167.596 160.323 167.643 160.535C167.66 160.644 167.69 160.751 167.732 160.853C167.725 160.742 167.711 160.631 167.69 160.522C167.66 160.31 167.596 159.996 167.507 159.598C167.226 158.472 166.831 157.378 166.328 156.333C165.569 154.793 164.694 153.312 163.712 151.902C162.64 150.291 161.389 148.57 160.197 146.687C158.578 144.143 157.369 141.531 156.924 139.182V139.182C156.759 136.837 156.619 134.883 156.521 133.479C156.466 132.814 156.424 132.279 156.394 131.881C156.394 131.716 156.36 131.576 156.352 131.457C156.348 131.42 156.341 131.383 156.331 131.347V131.347Z" fill="#263238"/>
<path fill-rule="evenodd" clip-rule="evenodd" d="M159.884 146.348C159.884 146.348 157.34 140.259 160.537 136.269C160.587 136.203 160.67 136.172 160.751 136.188C160.832 136.204 160.897 136.266 160.918 136.346C161.202 137.355 161.741 140.484 159.884 146.348V146.348Z" fill="#1A4F8B"/>
<path fill-rule="evenodd" clip-rule="evenodd" d="M160.346 138.385C160.237 138.761 160.17 139.148 160.146 139.538C160.057 140.251 159.956 141.234 159.875 142.341C159.795 143.448 159.761 144.431 159.761 145.156C159.735 145.547 159.759 145.938 159.833 146.322C159.901 145.939 159.935 145.55 159.934 145.161C159.99 144.351 160.053 143.405 160.121 142.358C160.189 141.311 160.261 140.361 160.32 139.551C160.367 139.164 160.376 138.774 160.346 138.385V138.385Z" fill="#263238"/>
<g opacity="0.3">
<path fill-rule="evenodd" clip-rule="evenodd" d="M159.884 146.348C159.884 146.348 157.34 140.259 160.537 136.269C160.587 136.203 160.67 136.172 160.751 136.188C160.832 136.204 160.897 136.266 160.918 136.346C161.202 137.355 161.741 140.484 159.884 146.348V146.348Z" fill="black"/>
</g>
<path fill-rule="evenodd" clip-rule="evenodd" d="M167.719 161.01C167.719 161.01 165.692 154.735 169.186 151.016C169.243 150.958 169.326 150.936 169.404 150.958C169.482 150.98 169.542 151.043 169.559 151.122C169.759 152.161 170.026 155.324 167.719 161.01V161.01Z" fill="#1A4F8B"/>
<path fill-rule="evenodd" clip-rule="evenodd" d="M168.822 153.132C168.682 153.497 168.584 153.877 168.529 154.264C168.381 154.968 168.202 155.96 168.033 157.033C167.863 158.105 167.749 159.11 167.689 159.831C167.641 160.22 167.641 160.613 167.689 161.001C167.787 160.625 167.852 160.24 167.884 159.852C168.003 159.051 168.143 158.11 168.308 157.071C168.474 156.032 168.61 155.095 168.732 154.294C168.802 153.91 168.832 153.521 168.822 153.132V153.132Z" fill="#263238"/>
<g opacity="0.3">
<path fill-rule="evenodd" clip-rule="evenodd" d="M167.719 161.01C167.719 161.01 165.692 154.735 169.186 151.016C169.243 150.958 169.326 150.936 169.404 150.958C169.482 150.98 169.542 151.043 169.559 151.122C169.759 152.161 170.026 155.324 167.719 161.01V161.01Z" fill="black"/>
</g>
<path fill-rule="evenodd" clip-rule="evenodd" d="M156.653 138.898C156.653 138.898 151.251 135.116 151.798 130.045C151.804 129.963 151.857 129.891 151.933 129.861C152.01 129.83 152.097 129.846 152.158 129.901C152.955 130.609 155.075 132.971 156.653 138.898V138.898Z" fill="#1A4F8B"/>
<g opacity="0.3">
<path fill-rule="evenodd" clip-rule="evenodd" d="M156.653 138.898C156.653 138.898 151.251 135.116 151.798 130.045C151.804 129.963 151.857 129.891 151.933 129.861C152.01 129.83 152.097 129.846 152.158 129.901C152.955 130.609 155.075 132.971 156.653 138.898V138.898Z" fill="black"/>
</g>
<path fill-rule="evenodd" clip-rule="evenodd" d="M152.786 131.932C152.895 132.306 153.046 132.668 153.235 133.009C153.541 133.662 153.99 134.552 154.507 135.519C155.025 136.486 155.533 137.351 155.919 137.957C156.11 138.299 156.341 138.618 156.606 138.907C156.461 138.544 156.282 138.197 156.072 137.868C155.682 137.16 155.224 136.325 154.724 135.404L153.384 132.933C153.219 132.58 153.018 132.244 152.786 131.932H152.786Z" fill="#263238"/>
<path fill-rule="evenodd" clip-rule="evenodd" d="M165.557 154.79C165.557 154.79 159.044 153.772 157.301 148.981C157.271 148.905 157.287 148.818 157.341 148.757C157.396 148.695 157.481 148.671 157.56 148.693C158.561 148.981 161.503 150.164 165.557 154.79V154.79Z" fill="#1A4F8B"/>
<g opacity="0.3">
<path fill-rule="evenodd" clip-rule="evenodd" d="M165.557 154.79C165.557 154.79 159.044 153.772 157.301 148.981C157.271 148.905 157.287 148.818 157.341 148.757C157.396 148.695 157.481 148.671 157.56 148.693C158.561 148.981 161.503 150.164 165.557 154.79V154.79Z" fill="black"/>
</g>
<path fill-rule="evenodd" clip-rule="evenodd" d="M158.993 150.249C159.255 150.539 159.55 150.798 159.871 151.02C160.435 151.47 161.228 152.072 162.122 152.716C163.017 153.361 163.852 153.908 164.467 154.281C164.788 154.506 165.136 154.691 165.502 154.832C165.211 154.571 164.896 154.338 164.56 154.137L162.266 152.517L159.977 150.885C159.671 150.641 159.341 150.428 158.993 150.249H158.993Z" fill="#263238"/>
<path fill-rule="evenodd" clip-rule="evenodd" d="M173.248 166.776L171.378 179.03L163.92 179.017L161.406 166.776H173.248V166.776Z" fill="#455A64"/>
<path fill-rule="evenodd" clip-rule="evenodd" d="M166.439 170.711C166.642 170.405 166.76 170.051 166.782 169.685C166.827 169.267 166.632 168.86 166.278 168.633C165.875 168.43 165.392 168.469 165.027 168.735C164.656 169.006 164.402 169.408 164.315 169.859C164.215 170.314 164.184 170.781 164.221 171.245C164.245 171.729 164.346 172.206 164.522 172.657C164.7 173.131 164.992 173.555 165.37 173.891C165.77 174.245 166.275 174.457 166.808 174.493C167.336 174.504 167.856 174.357 168.3 174.069C168.725 173.797 169.102 173.456 169.415 173.06C169.735 172.679 169.932 172.211 169.979 171.716C170.017 171.223 169.821 170.741 169.449 170.414C169.062 170.129 168.545 170.098 168.126 170.334C167.731 170.532 167.45 170.901 167.363 171.334C167.249 172.113 167.625 172.882 168.309 173.272C168.859 173.572 169.498 173.665 170.111 173.535C170.56 173.44 170.99 173.269 171.383 173.03C171.633 172.884 171.873 172.722 172.103 172.547C172.188 172.49 172.265 172.423 172.332 172.348C172.245 172.398 172.16 172.453 172.078 172.513C171.913 172.619 171.654 172.784 171.344 172.962C170.948 173.183 170.519 173.338 170.072 173.42C169.493 173.529 168.893 173.433 168.376 173.149C167.759 172.782 167.424 172.079 167.528 171.368C167.61 170.989 167.859 170.667 168.207 170.495C168.562 170.295 169.002 170.321 169.33 170.562C169.651 170.851 169.819 171.273 169.784 171.703C169.736 172.158 169.552 172.589 169.254 172.937C168.955 173.312 168.597 173.635 168.194 173.895C167.785 174.164 167.305 174.304 166.816 174.298C166.33 174.262 165.868 174.068 165.502 173.747C165.143 173.433 164.865 173.037 164.692 172.593C164.522 172.161 164.424 171.705 164.399 171.241C164.361 170.797 164.388 170.35 164.48 169.914C164.554 169.506 164.779 169.14 165.112 168.892C165.42 168.663 165.829 168.622 166.176 168.786C166.475 168.984 166.639 169.332 166.6 169.689C166.583 170.027 166.476 170.355 166.29 170.639C165.952 171.128 165.464 171.494 164.9 171.682C164.476 171.831 164.024 171.885 163.577 171.839C163.194 171.793 162.821 171.683 162.474 171.512C162.474 171.512 162.474 171.512 162.534 171.559C162.598 171.599 162.665 171.636 162.733 171.669C162.999 171.8 163.286 171.884 163.581 171.919C164.043 171.982 164.513 171.937 164.955 171.788C165.55 171.601 166.068 171.226 166.43 170.719" fill="#263238"/>
</svg>
